<mxfile host="Electron" agent="Mozilla/5.0 (Windows NT 10.0; Win64; x64) AppleWebKit/537.36 (KHTML, like Gecko) draw.io/24.7.17 Chrome/128.0.6613.36 Electron/32.0.1 Safari/537.36" version="24.7.17">
  <diagram id="Ht1M8jgEwFfnCIfOTk4-" name="Page-1">
    <mxGraphModel dx="1050" dy="717" grid="1" gridSize="10" guides="1" tooltips="1" connect="1" arrows="1" fold="1" page="1" pageScale="1" pageWidth="1169" pageHeight="827" math="0" shadow="0">
      <root>
        <mxCell id="0" />
        <mxCell id="1" parent="0" />
        <mxCell id="UEzPUAAOIrF-is8g5C7q-74" value="AWS Cloud" style="points=[[0,0],[0.25,0],[0.5,0],[0.75,0],[1,0],[1,0.25],[1,0.5],[1,0.75],[1,1],[0.75,1],[0.5,1],[0.25,1],[0,1],[0,0.75],[0,0.5],[0,0.25]];outlineConnect=0;gradientColor=none;html=1;whiteSpace=wrap;fontSize=12;fontStyle=0;shape=mxgraph.aws4.group;grIcon=mxgraph.aws4.group_aws_cloud_alt;strokeColor=#232F3E;fillColor=none;verticalAlign=top;align=left;spacingLeft=30;fontColor=#232F3E;dashed=0;labelBackgroundColor=#ffffff;container=1;pointerEvents=0;collapsible=0;recursiveResize=0;" parent="1" vertex="1">
          <mxGeometry x="310" y="99" width="720" height="630" as="geometry" />
        </mxCell>
        <mxCell id="UEzPUAAOIrF-is8g5C7q-107" value="" style="rounded=0;whiteSpace=wrap;html=1;labelBackgroundColor=none;fillColor=none;dashed=1;container=1;pointerEvents=0;collapsible=0;recursiveResize=0;" parent="UEzPUAAOIrF-is8g5C7q-74" vertex="1">
          <mxGeometry x="40" y="51" width="630" height="549" as="geometry" />
        </mxCell>
        <mxCell id="WYUEGz_iVffdBYWURj4v-10" value="" style="shape=image;verticalLabelPosition=bottom;labelBackgroundColor=default;verticalAlign=top;aspect=fixed;imageAspect=0;image=data:image/svg+xml,PHN2ZyB4bWxucz0iaHR0cDovL3d3dy53My5vcmcvMjAwMC9zdmciIHZpZXdCb3g9IjAgMCAzNjE4LjYgMzYxOC42IiBoZWlnaHQ9IjM2MTguNiIgd2lkdGg9IjM2MTguNiIgaWQ9InJlYWN0Ij4mI3hhOyAgPHBhdGggc3R5bGU9ImZpbGw6IzIyMiIgZD0iTTAgMGgzNjE4LjZ2MzYxOC42SDB6Ii8+JiN4YTsgIDxjaXJjbGUgc3R5bGU9ImZpbGw6IzAwZDhmZiIgcj0iMzAyLjYiIGN5PSIxODA3LjEiIGN4PSIxODA2LjUiLz4mI3hhOyAgPHBhdGggc3R5bGU9ImZpbGw6bm9uZTtzdHJva2U6IzAwZDhmZjtzdHJva2UtbWl0ZXJsaW1pdDoxMDtzdHJva2Utd2lkdGg6MTQ0Ljc0NTYiIGQ9Ik0xODA2LjUgMTE5MS45YzQwNi4yIDAgNzgzLjYgNTguMyAxMDY4LjEgMTU2LjIgMzQyLjggMTE4IDU1My42IDI5Ni45IDU1My42IDQ1OC45IDAgMTY4LjgtMjIzLjQgMzU4LjktNTkxLjUgNDgwLjgtMjc4LjMgOTIuMi02NDQuNiAxNDAuNC0xMDMwLjIgMTQwLjQtMzk1LjQgMC03NjkuNy00NS4yLTEwNTEuMi0xNDEuNC0zNTYuMS0xMjEuNy01NzAuNi0zMTQuMi01NzAuNi00NzkuOCAwLTE2MC43IDIwMS4zLTMzOC4yIDUzOS4zLTQ1NiAyODUuNi05OS41IDY3Mi4zLTE1OS4xIDEwODIuNS0xNTkuMXoiLz4mI3hhOyAgPHBhdGggc3R5bGU9ImZpbGw6bm9uZTtzdHJva2U6IzAwZDhmZjtzdHJva2UtbWl0ZXJsaW1pdDoxMDtzdHJva2Utd2lkdGg6MTQ0Ljc0NTYiIGQ9Ik0xMjcxIDE1MDEuM2MyMDIuOS0zNTEuOSA0NDItNjQ5LjcgNjY5LTg0Ny4yIDI3My41LTIzOCA1MzMuOC0zMzEuMiA2NzQuMS0yNTAuMyAxNDYuMiA4NC4zIDE5OS4zIDM3Mi44IDEyMSA3NTIuNy01OS4yIDI4Ny4yLTIwMC40IDYyOC41LTM5My4xIDk2Mi42LTE5Ny41IDM0Mi41LTQyMy43IDY0NC4yLTY0Ny42IDg0MC0yODMuMyAyNDcuNy01NTcuMyAzMzcuMy03MDAuNyAyNTQuNi0xMzkuMi04MC4zLTE5Mi40LTM0My4zLTEyNS43LTY5NSA1Ni40LTI5Ny40IDE5OC02NjIuMSA0MDMtMTAxNy40eiIvPiYjeGE7ICA8cGF0aCBzdHlsZT0iZmlsbDpub25lO3N0cm9rZTojMDBkOGZmO3N0cm9rZS1taXRlcmxpbWl0OjEwO3N0cm9rZS13aWR0aDoxNDQuNzQ1NiIgZD0iTTEyNzEuNSAyMTE5LjhjLTIwMy41LTM1MS42LTM0Mi4xLTcwNy40LTM5OS45LTEwMDIuNy02OS42LTM1NS44LTIwLjQtNjI3LjkgMTE5LjgtNzA5IDE0Ni4xLTg0LjYgNDIyLjUgMTMuNSA3MTIuNSAyNzEgMjE5LjMgMTk0LjcgNDQ0LjQgNDg3LjUgNjM3LjYgODIxLjMgMTk4LjEgMzQyLjIgMzQ2LjYgNjg4LjggNDA0LjMgOTgwLjUgNzMuMSAzNjkuMiAxMy45IDY1MS4zLTEyOS40IDczNC4yLTEzOS4xIDgwLjUtMzkzLjUtNC43LTY2NC45LTIzOC4yLTIyOS4yLTE5Ny4zLTQ3NC41LTUwMi4xLTY4MC04NTcuMXoiLz4mI3hhOzwvc3ZnPg==;" vertex="1" parent="UEzPUAAOIrF-is8g5C7q-107">
          <mxGeometry x="25" y="230" width="70" height="70" as="geometry" />
        </mxCell>
        <mxCell id="WYUEGz_iVffdBYWURj4v-22" value="" style="sketch=0;points=[[0,0,0],[0.25,0,0],[0.5,0,0],[0.75,0,0],[1,0,0],[0,1,0],[0.25,1,0],[0.5,1,0],[0.75,1,0],[1,1,0],[0,0.25,0],[0,0.5,0],[0,0.75,0],[1,0.25,0],[1,0.5,0],[1,0.75,0]];outlineConnect=0;fontColor=#232F3E;fillColor=#DD344C;strokeColor=#ffffff;dashed=0;verticalLabelPosition=bottom;verticalAlign=top;align=center;html=1;fontSize=12;fontStyle=0;aspect=fixed;shape=mxgraph.aws4.resourceIcon;resIcon=mxgraph.aws4.amplify;" vertex="1" parent="UEzPUAAOIrF-is8g5C7q-107">
          <mxGeometry width="78" height="78" as="geometry" />
        </mxCell>
        <mxCell id="WYUEGz_iVffdBYWURj4v-23" value="&lt;b&gt;&lt;font color=&quot;#4220bc&quot; style=&quot;font-size: 13px;&quot;&gt;Application Hosted on AWS Amplify&lt;/font&gt;&lt;/b&gt;" style="text;html=1;align=center;verticalAlign=middle;resizable=0;points=[];autosize=1;strokeColor=none;fillColor=none;" vertex="1" parent="UEzPUAAOIrF-is8g5C7q-107">
          <mxGeometry x="78" y="1" width="240" height="30" as="geometry" />
        </mxCell>
        <mxCell id="WYUEGz_iVffdBYWURj4v-24" value="" style="sketch=0;outlineConnect=0;fontColor=#232F3E;gradientColor=none;fillColor=#DD344C;strokeColor=none;dashed=0;verticalLabelPosition=bottom;verticalAlign=top;align=center;html=1;fontSize=12;fontStyle=0;aspect=fixed;shape=mxgraph.aws4.amplify_aws_amplify_studio;" vertex="1" parent="UEzPUAAOIrF-is8g5C7q-107">
          <mxGeometry x="234.91" y="225" width="86.18" height="79" as="geometry" />
        </mxCell>
        <mxCell id="WYUEGz_iVffdBYWURj4v-50" style="edgeStyle=orthogonalEdgeStyle;rounded=0;orthogonalLoop=1;jettySize=auto;html=1;exitX=1;exitY=0.5;exitDx=0;exitDy=0;" edge="1" parent="UEzPUAAOIrF-is8g5C7q-107" source="WYUEGz_iVffdBYWURj4v-27" target="WYUEGz_iVffdBYWURj4v-28">
          <mxGeometry relative="1" as="geometry" />
        </mxCell>
        <mxCell id="WYUEGz_iVffdBYWURj4v-27" value="" style="shape=image;aspect=fixed;image=data:image/png,iVBORw0KGgoAAAANSUhEUgAAArUAAAKZCAYAAACmztMMAAAAAXNSR0IArs4c6QAAAARnQU1BAACxjwv8YQUAAAAJcEhZcwAADsMAAA7DAcdvqGQAAGNQSURBVHhe7d0HmJxV+f//e7b33dnd9AQIKYT0hFBEQJqKdFEBERUEpYg0kWL9+7NgoxcRAREBKYqAqIiCICCQQApJSCMkkJ5sne1t5j/3yeEryCbZMmfmKe/XdeXKcx++1+/6udl55jPPnHPfkUSSAAAAAD6WZf8GAAAAfItQCwAAAN8j1AIAAMD3CLUAAADwPUItAAAAfI9QCwAAAN8j1AIAAMD3CLUAAADwPUItAAAAfI9QCwAAAN8j1AIAAMD3CLUAAADwPUItAAAAfI9QCwAAAN8j1AIAAMD3CLUAAADwPUItAAAAfI9QCwAAAN8j1AIAAMD3CLUAAADwPUItAAAAfI9QCwAAAN8j1AIAAMD3CLUAAADwPUItAAAAfI9QCwAAAN8j1AIAAMD3CLUAAADwPUItAAAAfI9QCwAAAN8j1AIAAMD3CLUAAADwPUItAAAAfI9QCwAAAN8j1AIAAMD3CLUAAADwPUItAAAAfI9QCwAAAN8j1AIAAMD3CLUAAADwPUItAAAAfI9QCwAAAN8j1AIAAMD3CLUAAADwPUItAAAAfI9QCwAAAN8j1AIAAMD3CLUAAADwPUItAAAAfI9QCwAAAN8j1AIAAMD3CLUAAADwPUItAAAAfI9QCwAAAN8j1AIAAMD3CLUAAADwPUItAAAAfI9QCwAAAN8j1AIAAMD3CLUAAADwPUItAAAAfI9QCwAAAN8j1AIAAMD3CLUAAADwPUItAAAAfI9QCwAAAN8j1AIAAMD3CLUAAADwPUItAAAAfI9QCwAAAN8j1AIAAMD3CLUAAADwPUItAAAAfI9QCwAAAN8j1AIAAMD3CLUAAADwPUItAAAAfI9QCwAAAN8j1AIAAMD3CLUAAADwPUItAAAAfC+SSLLXAADHOlfWS9famHS90yRda5J/r0v+vbpREp099v9iu6zyfMkqzkn+yTXXuaNLJHdcueSNq5DcPcslu6rA/l8CABShFgAc6qltl9Zn1knLv9ZJ+/ytyYXU3HKzhxRKwYwhkj9ziBQk/+RNqEgm4Yj9rwAQPoRaAEixeKxTWp562/xpX7hNJA132ayKfCn5+O5SfPQekj+5yq4CQHgQagEgRVr++Y40P/6WtL20ya5kRs7oEin95HgpO3miRAqy7SoABBuhFgAGI3kHbXn6HWm8c6l0vtlgF70hu7JAyr+wt5R+Jhlu8zgXDCDYCLUAMEAt/3hHGm573Rz68jI9VFZx9lQp/fQEuwIAwUOoBYB+0o4FtT+cu/3gl4/kTYpK9XcP2H6oDAAChlALAH2UaOuW+lsWSezBlXbFn0o/M0GiF8yUrKIcuwIA/keoBYA+6N7YLFsufs70lg2C3N3LZNj1HzGHygAgCAi1ALALrf/eIDXfeUnirV12JRh0sMOQqz8shR8aYVcAwL8ItQCwE/W3vi6Nv1lqq2CKfnWGlJ8x2VYA4E+EWgDoTTwhNT94RZqfWGMXgq3k+D2l+lv7MZUMgG8RagHgfyS647LtG89L6wsb7Uo4FOw3XIb+/CDJKsq1KwDgH4RaAPgfm89/RtrnbbFVuOTtFZURvz5SIoV0RgDgL4yYAYB3xROy9ev/Dm2gVZ0r6mXLZc+bp9UA4CeEWgCwan48z3Q6CLv2uZul5rsv2QoA/IFQCwBJjfcsk+bHVtsK744ABgC/INQCCL2ORduk/uaFtsK7Gu5aGuqtGAD8hVALINTijR2y9fIXRDgy+0HJn8nWb74oPbXtdgEAvItQCyDUtl6ZDG11hLYdiTckQ/+VhH4A3keoBRBaTX9YJe2v8vX6rnQs3CZNj7xpKwDwJkItgFCKN3WaEbjom/pbFpmfGQB4FaEWQCjV3bCQkNYP5kPAjRymA+BdhFoAodPxRi3tuwag6dHV0rm83lYA4C2EWgChU3/zInuF/mq4fbG9AgBvIdQCCJWOZXX0Xh2E1hc2SNc7TbYCAO8g1AIIlca737BXGJBE8md45xJbAIB3EGoBhIY+YWx9Zp2tMFDNf10r3ZtbbQUA3kCoBRAaTQ+vslcYrOa/rLFXAOANhFoAoZDojhPEUqj5L2/ZKwDwBkItgFBoe2EjfWlTqHtds3SuoL0XAO8g1AIIheYneEqbai1PrrVXAJB5hFoAgZfojJtWVEit1n/zMwXgHYRaAIHXvmCrSE/CVkgV7SbRU9tuKwDILEItgMBj2II7ba9stlcAkFmEWgCB1z6P4OUKP1sAXkGoBRBoic4e6XijzlZItY7Xa+wVAGQWoRZAoHW93WSv4ELX+maROPuVAWQeoRZAoHW9HbNXcCIZaE2wBYAMI9QCCLSutYRa1/jgAMALCLUAAo3tB+7pdDEAyDRCLYBA66lts1dwpXtbq70CgMwh1AIItHis017BlXh9h70CgMwh1AIINEKtez31TBUDkHmEWgCBFm8i1LrWw5NaAB5AqAUQaIkeeqi6xgcHAF5AqAUQaJH8bHsFVyLZvJUAyDzuRAACLYtQ61ykgJ8xgMwj1AIItEhBjr2CK5FCfsYAMo9QCyDQIoU8RXQtO1pgrwAgcwi1AAItZ1ixvYIr2dWEWgCZR6gFEGg5Iwm1ruUMLbJXAJA5hFoAgZYzqsRewZWcEXxwAJB5hFoAgcaTWvfyJlTYKwDIHEItgEDLG1dur+BK7p78jAFkHqEWQKDljCzhaa1DeXtX2isAyCxCLYDAKzxwpL1CqhXMGmKvACCzCLUAAq/wgOH2CqlWsM8wewUAmUWoBRB4kXwmXrmSt1fUXgFAZkUSSfYaAAKlp65d6q5fIC1PrhXhTudEdlWBRC+YKSXHjE2+o9hFAMgAQi2AwEl0xyV233JpuGupJFq77Spc0gNj1d/Zn/ZeADKGUAsgUNrnbZGaH82V7g3NdgVpExEpOX6cRC+YIdkV+XYRANKDUAsgEDTE1v7iNWl7YaNdQaZkleRKxVemSdkpE5MFexIApAehFoCvJdq6peHOpRK7f7kkuuJ2FV6Qu0eZVF21rxTMHmpXAMAdQi0A32r+21qpv2mh9GxrsyvwoqLDxkjlZbMlZ2iRXQGA1CPUAvCdzlUNUvvjudKxpNauwOsiedlS/oW9pfzMyeYaAFKNUAvAN+KxTqm/eZE0PbY6WXDr8qOc4UUSvXi2FB8xxq4AQGoQagF4XzLAxh5eJQ23LzbBFv6XP2OIVH97P7PvFgBSgVALwNM6Fm2Tmh/Ola61MbuCwMiOSNlnJkjFOdNNxwQAGAxCLQBP6t7aKvXXLZCWf75jVxBU2dF8qTh/hpSeMC75rmQXAaCfCLUAPCXRGZfGe96QxrvfkERHj11FGOg0sqpv7if5U6vsCgD0HaEWgGe0/mud1F23QLo3tdgVhI5OJfvEHhK9aJZkVxbYRQDYNUItgIzT/bK1V8+T9vlb7QrCLqsoV8rPmiJlp+0lkZwsuwoAO0aoBZAx8dYuabhtscQeWinSw60IH5QzqkSqv7WfFOw7zK4AQO8ItQDSL3nXaX58tdTf+rr01LXbRWDHig4aKZWX7WNCLgD0hlALIK06l9VJzQ9eMVPBgP6I5GVJ2WmTpOKsqRIpYCoZgPcj1AJIC30iW3/jQmn+6xrzpBYYqOwhhVJ54SwpPmp3uwIAhFoAadD4u2VmGlii3fstuooOHyOtz6yzVTgVfWS0tD633lbelT9ziFRfta/k7lluVwCEGaEWgDNtr2yWup++Kl3rmuyKd+XtXSlVV8yR/ClV0vrsetn6jeftfwmXoT89yAT79te2Su3Pkv92bzXa/+JdJSeOk8qvzZSssjy7AiCMCLUAUq57Q7PUXTNfWp/fYFe8S3uhRs+fLiXH/3eaVey+5VJ3/YLtRchUfmMfKTt54vYinpDYw6vMU/Z4rHP7mkdpoI2eN11KTxqfLBhLBoQRoRZAyuj2goY7l0js/uVmMpinZUek7JSJUnHONNMT9V0a3tYf/7jEW7rsSrhoOBz9+PGSVfz+n0n9LYuk6dHVJuh6mW5FqP7mvpI/Y4hdARAWhFoAKdHy97el7oYF0rOtza54V8HsoVL17f0kd0ypXfkv/cq96eFVtgonHXhQeclsW/2Xdqyo/fFc6VhSa1e8q/iju0nlpbMlu7rQrgAIOkItgEHRPZfaossPQSdnZLEJa0WHjrYr76d7fzd8+i+efxrpmk7wGvnQ0b2GftXyZPIDzI3e/wCjbb8qzpwiZafvbdqBAQg2Qi2AATFfSd+6SJr+5P2vpDXclJ8xRco/v/Nws+Vr/5K2lzfbKtyKDhklQ685xFYf5KetJjqwofKSWaarA4DgItQC6J9kgG3645tSf9vrnj88pPr6NXTbfzbJlouetRXU8F8dYbZq7IyfDgXqqN0qbQG2gyfQAPyNUAugzzoWbZOaH8/zRZunfh0YSgb19Z9+QrrXNdsFqNyx5TLqwaOT7xR2YSfa522R2quTvxseb9+mWytKT50o0a9Mk0hhjl0FEASEWgC71FPTJnXXzpeWf7xjV7xrIK2d9GCYHhDDB1UlPxiUfjL5s+yDRE9CYr9fLo13LPV894jsqgKJXjBTSo4Z26fQDsD7CLUAdkj3Suo0sMa7l3p/GlgywGqQjX51hmSV/Lcd1a5o+DItvHywlSITsqP5MupPx72vxdeumJHINy2U5r+s8fxIZB26Uf2d/SVvQoVdAeBXhFoAvdKpWnXXzZfujS12xbt0i4FuNRjIuFT93xi7f4Wt0JvyL+wt0a/NtFXfdS6rk5qr55m/PS0iZvhG9IIZkl2RbxcB+A2hFsD76J5IHW2rI269LntIoVReOFOKj9rDrvSPaeF10hO2cqPwwBHmiXfH6zXJv1P7tDuSly35U6vMU1TXB7V0IEPOiGJb9U/zY6ul7qZFEm/ssCveFCnKkeg5002fXgD+Q6gFYOjX8A2/fF1iD660K95WcfZUKf/iZNOua6C2Xva8tD633lappyN4Rz963P8dSNKDdp1vNUrXmph0rU3+SV53b2k1/21XcoYXmYNbuXuUJf8uk7w9y//vEJyGZQ3nff1/ayCKj9xNhlz9YVv1n59+v/TnW3X5HCmYM8yuAPADQi0A8ySt/tbXzV5Ir9PBCdqia6BPDd/V/tpW2Xzu07ZyQ/dqlhy/p616p3uVu9Y0Sry12668nz6F1SC7q/De8s93ZNtVL9rKjRF3HDno8bNd7zRJ3c/88U1A0WFjpPKy5O/a0CK7AsDLCLVAiPlmz2OS9hbV0ba76pvaJ8m73oZT/mrCpCv9aYeVKpu+9JR0LHY32S1vr6iMvPcoWw2OPiGvu26B6XPrZbrFQ/cUl5852VwD8C5CLRBCPQ0dUn/jQml+4i3Pn07XTgYVX5kmpSdPlEh2ahJi06OrpfZHc23lRl8GF6Ra54p62Xj6k7Zyo/p7+0vJsTt/+txXutc4du8yabj7DUm09f6k2it0+0f04tlSfMQYuwLAawi1QIhoH9GmB1ZIw6+XeL6PqLboKjluz5SfSNev+9cf/5j01Ls7tKRbJIb+/GBbpde2774kLX9ba6vU0xZfox8/YVB7mf+X6YN83QJpeeptu+JdptPGt/czW0IAeAuhFgiJ9vlbpfaHcz0/8Um57B1af/MiafztG7ZKPZ1YNeqRYwe953egera1yfoTHzdPQV2pOGuKVJw73Vap45uJddkRKfvMBKk4Z3q/eiIDcItQCwRc96aW7bP5HZ7yT5Xs6kLzZLbkaDdTnvRnoV0CEt3uAl/56ZMketEsW2VGw+2LzdN4VyJ5WTL60eNNS7WUiyek6U+rpf6Xr3u+BZg+ta44f4aUnjDOye8rgP4h1AIBpV+z6ySwxt8tT3l/1FSL5GZJ2Wf3Mm26XM7j33blC9Ly9DpbpZ6O6NV+rv2ZvuWCPqXVp7X61NaV4o/vLkN+eKCtUi/e3CX1ty6Spj++aYKul+k3ClXf3M/0DAaQOYRaIIBa/vGO1N+wwGnf0lQp2HeYVH9rP8kZVWJX3OhYXCObvvQPW7lRdcUcKf30BFtlVvNf10rN916ylRsj7vqo5E+rtpUbuhVBtyTo1gRP06lkn9jDPKXX/sQA0o9QCwSIbwJAkrbo0n6zhQeNtCtuaVcA7Q7gimnh9cAnzAE3r3D9vzmVLb52Rfvw1l/v/Q9qWUW5Un72FPPNg+6vBpA+hFogAMxXtbcskqZHvP9VrY4irfhS8k3/c5PS9qbf/MQaqfn+y7ZyIxMtvHYlHU+nh/zgQCk+andbuaXbaBp/84Y03rPM81tq9JsH/QZCv4kAkB6EWsDPfHSoRr+eLT5qD6m8OL1fz6ajhVfhh0fKsOs/Yitv0Slj+pTTFT0spofG9PBYupjDj9fOl9ZnvX/4seigkVJ52T7Ot9cAINQCvtWxpFZqfvCK99sfJWXyIE3DrxZLwx3uOgHodoNRfzjGbKfwItPx4dNPuG3xdc40c8gv3UybuqvnSdfamF3xJg38ZadNkoqzpqa0vy+A9yPUAj5jGtVfv0Ba/u79RvWZbnmUjp6tZadMNE/ivEy3pjTe7bA3bzKo6UAG/fdOu3hCYg+tNB9edBuOl+lT7coLZ6VtuwYQNoRawCfMSNH7lknDb7w/UnR7c/qJUnHeNHNwJlO2fec/0vKku/CvrbtMC6+yPLviTenYglFy7Fip/t4Btko/M/o5Gd6bH3/L8/vK9RsLHS6Su2e5XQGQCoRa+Ernynpz+jle127eoHvM3+0S1zfriD4xyjF9TrOSf8zfRTmSM7pU8saWmSlVftX67w1mD2H3hma74l16MKbqG3MkN/kzz6SOpbWy6YynbOVG5df3kbJTJ9rK2zTs6XYVl7QTgnZEyCTt9lD7s1el4/Uau+JdpZ8aL9HzZ3j+Q9HOdL0dk641yT9vNZoPFjp+O5H8o0/NE11xieRnmz30+pRax11nVyWvqwslK5r8W69TOAIbINTCk+KtXdL+6lYTYrtWN5o9c51vNtj/OnC67zFvapUUHzpaCg4YYUKvl+lI27qfviptr2y2K96lY2Ervz5bij4y2q5k1qYznzL7jl3JGV0io/90nK38wXWLr/yZQ2TEr4+0VWZpn976GxdIT227XfEmDbTR86Z7pr/xrrTP2yKtL240+5k7l9XZ1YHTb3IK9h8uhQeOMH9yhhbZ/wL0H6EWnqKnmXWvqMvT2u9VMGeYFB8xRkqOGet0klV/6fYCHXXaeO9yu+JtmTootCMtT70t2771H1u5MfTaQ6To4FG28of217bK5nOftpUbQ35ykHlNeYGfXkfa57jqqjlSMMtbbeGU3o9bk3/aXt5snsS6pFsyikzAHUk7NPQboRYZp1+pN96/Qlr+ssb5DXNHtHdq6fHjpOy0vcwTx0zSnqr1Ny00Wyu8Tg+8RL8203NPV9Yd85j0bHXXpF8/DA3/5eG28pet33jeaSusnJHFMvqx423lDeYbj2vmS9uLG+2KdxV/bHepvGSW+Yo+k+KxTtP3uumPq6R7c2YGXugBRP3gWPqZicmwP8SuAjtGqEXGtL20SZoeWimtL3jrjabo0NHmyWPe+Aq7kh6dqxqk9uq50rHY3VfmqWKeKl05x3PDBlTjXUtN316XRj5wtOSN8+chn+6NzbL+hD/byg39oFP+hb1t5R2tz2+Qul+8lvwZtNgVb9J9qOVnTM7Itx/aMaThziXJMPumXfGGvIlR02mk5Pg97QrwQYRapJ3uxdKnJrpf1rMiyXD7kfSEW3Nq+2Y9tb1axOOvRrP/79zp5oCLl8bBvksPD+opfz3t70rpJ8dL1Tf3tZU/1d2wQGIOv5LPaIuvXUh0axeR5dKQ/PCTaPV2FxEd2KCjpIsOcb/NRb8Z0g+ETX9602kLvMHKGV4klZckfyaHe2OLC7yFUIu00RCrX6vrviw/0f22egAqqzT1J5Rj96+Qhl97v7+mKj1JT2pPl6xy755Wrvl/r0jzn9+yVerpoZZRjx7nybDWH3oQU5/WxpMfqFzR35eqq7wb/vUAmd6Pmv+yxq54V+EBw6Xy8jnOBnw03rvM9Pl1+WEw1Qr2Gy5Vl+8jubtntssKvIVQC/fiCfN1sM5r93r/yB3R1jM64z5VBxf8MglJ+aWnpp7q3/j5J50+7Y5eMEPKvzjZVv7W9IdVUvvTV23lQERk1INHm60qXqYdMmp/PNds//GySE6WlJ46UaJfmZayQ636oKHm+694+1uznYjkZknFudOl/PRJnvzmCOlHqIVT2lN221Uv+GKfaF9o253Ki2YNeNSlmVl/3QJp/dc6u+Jd2UOLpPLCmVL8cX9MP9r0paec/p7pAcJRjxxrwkUgJD9gbjj1b9K1xt2YZd1zPfxXR9jKw5Lvgk2PrZaGWxc5HVCRCvoBO3rBTPMN0kCn9GlXiPrbXpfYAyt9+6DhvfKnV8vQnxxkeuEi3Ai1cKb1ufVS8/+97Iuv1vtD97kN+cGHJH9atV3ZtURnjzT+5g1puGOJXfG28i9NkYozpww4vKebfkjYevkLtnJj6E8PCtw+Pu1/vOWCf9nKDT+1Pos3dZqv4WMPJsOex+VPqZKqK+b0e6iMdoLYetFz5u8gySrJlcpvzJGSo/ewKwgjQi2caPyNPYEe1N+urIgM+f4BUnzUrm+g2uOx/oYFGWuL0x96OE73D2e6rVl/6MGfDSc9YZ6Cu5I/rUpG3PUxWwXLlkuekzaHHUhyxpTIqIeO8dUTbt0WpNuDdJuQp0VESo4fZ7bF9GUyl/7v0ZZu2q4rqPTbtKrL5wz4KTb8jVCL1Ionth/W8cHhi0FL3jT15rmjSUD6xljzw7nSsWibXfEuPYCih3r82Oxc92rrgR+XvDD+1RV9Yrfh039x+jW0nlbXHtB+o98A6HYhlx+YUkGfUlZ8ZZppebWjvaX64Xrbt/8j0hP8t3z9cD7kxx+WSF5Atgqhzwi1SBkdnLD16/82U4vCpOLLU80byrv0K8z6WxZ5rs9jb7KKk2+G506XslOTb4Y+pO3Q1p/wuNPWTCXHjpXq7x1gq2DSFnuxB1bYKvU0dOlABm0J50e6bUi3JXhd7tgy80Fbh4O8V/Pjb0nND16xVTjkzxgiw274iLnHITwItUgJbQWz+Zx/Sscbg58F7kfmK68r5pgej/W3vu60VVKqlBy3p0QvnNmnry29Sr8i1qlHrph+q48cF/gDKPp19PpP/tnp19Kln7FfC/tU99ZWqb9uQdpGeA9G0WFjpPKy2WbSn/MuFx6WP3OIDL/1cNMlAeFAqEVKbD7/GWmft8VW4ZRdWeCL0bbaokvDRX8PmHhN55sNsvGzf7OVGzp8IxNTnTJBT8LXXfOardzQvbX6NNHPTDu+n7zqtGtEqmi49UOnFZf0ZzD0ZwfZCkFHqMXgxBNmy4HXRt3ig7a3ApohJcfsmXzl20Uf23zO004P8ujT2dGPHh+efXnJ1/L6Tz8h3eua7ULqFX5ohAy78VBb+VjyZ6Xbi7QtVpAPXQVFyQnjpPrb+9kKQcYzeQyKjncl0HqbnjrX5uSj/3SclBwbjECrM/xdn0zXHr2hOmiSFZGqS/exhRttL23y3UTBXiV/VrqdQl9TXh0Zjf9qfmy1GQGM4CPUYsA0WDT+bpmt4EXazWDkQ0dLVAdGpGgKUcbFE1J33XxbuKGdDvrSri1oCg8aaQYmuFT7s3nm3zAI9OBb1ZX7yqjff8Js64F3aYvJ5r+ttRWCilCLAdEWN6Y9DDwpZ3SJaXqvhyRczYvPlNhDK51+Ra700F9YVV3ptsen/tv5oTNIf+gI6RG/+ZgM+eGBZhIfvKnm+y9L19veH02OgSPUov8SItuuetFpGyUMjD6NjX51hox6+BjfTHHqD92/2HCb29ZKxR/bvV/T4oImd2y5lJ403lZumL2oLcGaNKh0pPToPx4r5TqNjx6p3tOTSAbbV4I7FAiEWvSfjpDsWOpuxj4Gpvio5BvqI8k31DMm+2p6U3803L7YaRjSIFJ58SxbhVf0/BlO+3uaDyfJf8sg0jZw0fOny6g/HCtFhwTvg6XfdSyukdjD3h+DjIEh1KJfdNtB/c1upzehf/ImVGz/6vMHB0p2dXD7qerkq9jDq2zlRtnn9g58T9q+0L2i5WdPsZUbTQ+tMv+mQaWjpodeE8wtQH6nw3G07zCCh1CLftn23Zck0dFjK2RSVkW+VH1zXxl5XzgOqejUK5cHjLKj+VLxJbdBzk/KTt3LBDNXEt1xqb9+ga2CyxzWfPgY8w0A0628QbfO1f5wrq0QJIRa9FnbfzZJx8JttkImlX12L7PVoPST4wPRomtX2l7ZLG0vum0dF71gpvnqGNvpFpbKS2fbyo3Wf28IxVjtSHZEyj43SUYlX7Mlx+9pV5FJpr1c8r6CYCHUos8a7lxir5Ap2m5JD4Fp2Mgq9ecc/X7TFl76lNYhPRylY4PxfkWHjnbf4ktHuIbk4I5OHaz+zv4y8p6P+36iXxA0/Op1e4WgINSiT9oXbpOO12tshXTTr4GH/OQgGf6rIyR3D3+PGe2vpkfedD6S1HUbKz9z/bPRf9umx1bbKhw00I787cel+nv7m6CLzOhYXGue2CI4CLXok8bfMI0lEyL52VLx5aky6g/HSPERY+xqeGinA22a7lI6nkb6WTqeYjfcukgS7SHbq5/8oKAT/kY/epyUnT4psB1LvE4PjSE4eBVhl7reajT7aZFeGmJ1D17FV6ZJJC+cez0b7ljidLZ+OvaNBoHr/cY99R3m3zqMtLd05UWzzOQ/PVSG9OpcUS8dizgrEhSEWuxSw6/ZS5tOur1AtxnodoOcEE8n0vZxTQ+47SdZeupEpyf8gyIdnSFi9y03/+ZhpW2/tP2XtgHTiYBIn6bH3rJX8DtCLXZKv/5teWadreCS9gatvGwfGfXg0XwdnlR37XzT9skV/XlXnD3VVtgV1z18TYuvG4Lf4mtXdGDDqAePMZMB9Sku3Gv5+9uSaGNCZhAQarFT2nLHZW9QJGVFTGuu0X86TspOmWjqsGufv1Van11vKzei502nb2g/mGlrl7jdqtHy9Doz8Sns9GetkwG1bZ9OCoRbic4eaU4GW/gfoRY71aahFs7o0ISR9x5lhijok0MkJT9D1f7kVVu4oYefSk8abyv0VfFHd5P8aW4HfZgWXzB0QqBOCtSJgbl7lttVuND6z3fsFfyMUIsdSnTFpfV5Qq0L+jXukB98yLxZ6Zhb/Ffz46vT08KLJ+IDUnXFvvbKDT240/zEGltB6YffUb//hFRdlfzwW5FvV5FK7Qu2sgUhAAi12CGd9MNIXDd0tG3xUXvYCu/Stk6uW3gVHjSSPcuDkLdXVEqOdvu7Wx/GFl+7otuUThovI24/0i4glRKd8VBMtws6Qi12qPU5t3saw6xzVb29wnvp1Lqe2nZbOZAMBrTwGjzT4ivP3dtHz7Y2afztG7bCe3WubrBXSLVWx6O44R6hFjvU/toWe4VU61jEYZj/pe2cYvcvt5UbpZ+eYFonYXB0+0z5GW5bfDXe84YJt3i/jqW19gqpRr9a/yPUolfaXqfr7SZbIdV07DDer/7GheYrQFe000H0nGm2wmCVf3Gy2xZfyd+Fuhtp8fW/OpfzLY8rXWtjdPvxOUItemVunLy4neGJwPtpG6cWx6ePK86dRoeJFDItvi6caSs3Wp58myeT/0MP0sENPRzduSYZbOFbhFr0qnN5nb2CC3oAr3tzq63guo1TzpgSKTt5oq2QKnrYUQ+OuVR3zWv2Cl3rmiTe5G5sNJI/Y847+BqhFr3qXO22pRJ0D2mzvQq35r+tdf70yQwNoIWXE1VXzLFXbnQsrjUTn6CBi0NirnXyM/Y1Qi161VPDAQ3XujcQanXfZP1NC23lhrbvKjp4lK2QavnTqs1QBpfqbljgdL+1X3RzcM657i18g+ZnhFr0qqe+w17Ble4NLfYqvBrvXur2hHvEDlqAU/ok3HmLr98ts1V49dQ5bHcHg97s/kaoRa/iDYRa15z2Y/UBE1TucRtUSk8cb0biwi3tglB2+t62csN8AAr5N0hxQq1z2vkH/kWoRa966rl5upboCPdIxrqbFjp9KhIpyJaK86bbCq5VnDlFsqPuRriaaXO3LLJVOPGk1j2e1PoboRa9isc4Yeuato8Jq45lddLyt7W2cqPiy9Ochiy8n36I0EljLjU/sSbULa3iTV32Cq6wd9vfCLXoVSSXXw3XwvxEoO7njlt4jSiWstP2shXSpeS4PZ1v96j96Tx7FUI08HAu0cmTWj8juaB32dw9XQvr3i0dsqBtmlyqvHiWRHK4vaWdHsy7al9buKG/O63/WmerkOG+7Byh1t+466NXkSx+NVyLFOTYq/Awo0+vnW8rN/KnVUnR4WNshXQrmDVEig4dbSs36q5bwIEeOMGeWn8juaB3OTwRcC07hCNbY/cvd9vCK6nqG7TwyjR9Uu5S96aW5O/SCluFR4Qnte6F+KxDEBBq0avsaIG9gitZIQu12vu44c4ltnKj5Jixkrd3pa2QKTmjSqT89Em2cqPxrqWh66edVcHBR9eySsP3sCFICLXoVfbQQnsFV8IWarUdk7ZlcsWcvv/qDFsh08rPnur0dzze0iUNv3zdVuGQM7TIXsGV3D3pa+1nhFr0Kmd4sb2CK9nV4fng0LmyXpofW20rN8q/ONkMAYA3ZBXnOv+Q0fSnN6XzzfDM6s8eRqh1LW8codbPCLXoVQ5Pap3LHVtmr4Kv7hq3h8M0zJZ/YbKt4BWln3Q/0a3u56/Zq+DjSa17PKn1N0ItepUzptRewZW8PSvsVbC1Prde2udvtZUblRfOkkgetzPP0RZf39jHFm7o71br8xtsFWy5u4fng3Cm5PKk1td4F0Cv8idX2Su4kDOsyOwBDTptu+T6KW3eXlEpPmp3W8FrCvYdJkUHjbSVG3XXzQ9Fi6/c3UtDcd/IFB06lDuqxFbwI0IteqVfjWcV5doKqRaWr7iaHlxp2i+5VHWl22b/GLzopbPtlRvd65ql6Q+rbBVgWRHJmxi1BVItd48y8zOGfxFqsUN5U2iN5Io2qA+6eKxTGn7ttoVX8Ud3k/ypfKvgdbljSqXs1Im2cqPhtsXmdy7o9JsJuMHWA/8j1GKHCmYEP3hlSsEBI+xVcNX/8nXTdsml6EVum/wjdSq+PM19i6/bF9squPKn8CHOlbxx4TjnEGSEWuxQoeN9cGGVVZIr+ZOC/RS8a02jND3ypq3cKD9zitmbDH/QQKvB1qXYw6uka12TrYLJ7E/mG3InCvYfbq/gV4Ra7JA+EWCCTeoV7Je8cQb8Tan2J6+KxBO2Sr3saL5UfGmKreAXZSdPkJwxDg/iJH/n6n4R7BZfWeX5UjB7qK2QKtlVBZLPNELfI9Rip4oPH2OvkCrFRwT7Z9r24kbnLbyiF8zkFLgfZUWk6lK3Lb7a/rNJ2l7ebKtgKjqM+3KqFX+MDipBQKjFThUdOtpeIRX0K9ig3zzrrnXcwmtChZQcv6et4De6rcl8W+GQtvgKMh42pF4RP9NAINRipwr3H86+xRQq/niwA23swZXS9Y7bPY2Vl7l90gf3qi6bbZ7autL1VmOgW3zpBL3CDwX/sGm65Iwq4WB0QBBqsXPJN57Sz0ywBQar9Phx9ip40nH6XL85YD+h/+no3NKTxtvKjXR038ik0hODey9Jt7JTJnL4LiAItdglnd/OCNLBy59eLXmTgttj0nWf0EhOllQ6buKP9ImeN12yit0NeElHn+RMKjxklDkwicHRvfklJ7CdKShIKtglsw/06LG2wkAF+bS+tlGKPbDCVm5o8/6cEcW2gt9tb/E11VZuxO5bLt3rm20VLPohr+Q4wthglRw/jumZAUKoRZ9EvzLN3EQxMDoWt/DDwe37W+/4cJgGoPKz3QYgpF/pKe4/qNRdv8BeBU/Z5yZJpDDHVugvfU+rOGOyrRAEpBT0iR5McD3mMshcP5HKJG3f1frCRlu54fqramRGOraUtD633nmLuUzJriyQ8tMn2Qr9pe9p+t6G4CDUos/0SRnBov/y9q6U4iN2s1XAJOygBYfScagImZOOw3/md9TdLJCMKv/83uabDPSPvpfx7U/wEGrRZ3oTqDh3uq3QV9VX7StBPVnb9Kc3zUhcl6q+sU/yl4+jyUHmuk2bGdv82GpbBYtuP4h+dYat0FcVX5nGQ5oAItSiX7T1Sd5ewT3Bn2qlnxpvntQGkbZLqr9lka3cKDxwhBTsO8xWCCozUOMEty2qGm5dJIn2HlsFi3aoyZ9WbSvsiv6+6X5uBA+hFv0TEan+/odsgZ3RdjtBfoLSeNdSpy28VOUltPAKC32tuDz01FPfIQ13BrTFl96Xv7u/LbArQ350oESy+fYniAi16Le8ceVSwV6knUveL4f8+MOSVRrMvW7dm1okdr/bFl6lJ0+U3D3KbIWg0w+Brtvexe5dbn53g0hfK+UBbhuYKtELZph9+ggmQi0GpOKcaYH9Wj0Vyr84WQrmBPdr8/obFkiiO26r1NMPA9Hk7xjCpfyMyU7HcuvvbP2NC20VPNolhPvyjukAHL03I7gItRiwYTceKtlD3b0B+VX+5MpAH6jrWFwjLU+vs5Ub2gKNE93hFL14lr1yo+Wf75jf4aAadu0hkl1Nm6r/lV1VIEN/drCtEFSEWgxYdkW+DL/5UDNmENvpm8nQXxwS6P1atVfPs1du5I4plbLP7mUrhE3xkbuZJ2ou1f78NXsVPHoPGnbdRySSx335XfqzGHbTYSbYItgItRgU3Zs09OeH2CrcskpyZfityRtngJt5Nz/xlnSuarCVG9FL3D6pg/dVOW7x1bmsTpr/ssZWwZM3KWoOQ2G7IT/5sOl4gOAj1GLQCg8YLkN/elDytym8p0nNk4CbDwv0AQRth+R6P6I24S86eJStEFa6L7Tk6D1s5Ya2owtqiy+lQy2qvxfyjgjaFeL/O4B7SogQapESRYePkepv7Wer8Bn684Mlf0qVrYKp8e6lpi2SS5U6aAFIil4wUyL57r5C79nWJo2/fcNWwVRy7J5S6XiPspdVf3t/KTlmrK0QBoRapEzJ8ckb6NfD1VdU92iNvPcoMyQgyLq3tErj75bbyg1tIJ83nq8IsZ1u49FuCC413rNMemrabBVMZZ+bJBVnha/Vl/bt1fckhAuhFilVdupeMvQXB4fi8FjuuHIZ+bujQjFhTbcdJDrdfVWrvy8V5zGCGe9X/oXJTveo6+903Q3BbfH1Lu3GYoYzhGDggN5L9D2o5DgCbRgRapFyRR8ZLSPu/Gig230VHzFGRv7mY4E+FPaujiW10vLU27Zyo+LL00zzfeC9InlZUnmh4xZfT66VjqW1tgouDXnDf3lEoFvl6XvOiOR9Wd+DEE6EWjiRNzEqo+4/KpBz+3V065CfHOR0pKeX1P7sVXvlRs6IYin/wt62At6v+KjdnQ8UqLsmuC2+3qtg1hAZef8nAjmgQf+36XsOW5jCjVALZ7LK82X4rYdL1eVzArEdQffP6hPostPC00NVn2Jp+yOXohfOtFdA76ocHyDsWFwrLX93+22EV+jENn2aqVMhg7AdQTvPRL86Q4bfdoR5z0G4RRJJ9hpwpmtdk9R8+z/S8YbbgOREVkRKTxpvbpzaizYsEp1xWX/i4+aUuCv506pkxF0fsxWwY9u+9R+n22B0K9HoR483Wx7ConNFvWy76kVzf/YjfTpb/b0DJGdUiV1B2BFqkVb65K/+V4ule32zXfG2gllDperKOZK7Z3D7z+5Iwx1LpCH5b+WSOWg3KfgH7TB42oFj/bGP2cqN6HnTpfxL4esUEHtgpTTetcR5y75U0W/N9PBb6Ynj7AqwHaEWGdH8xBppuD0Zbje12BVvyR1bJtHkTVP774aRtjlaf+KfJdHhruNBybFjzVMWoK8abntdGu5caqvU021S+rQ2jONU9bXe9PAqabj7DYk3ejPc6tP0irOnmm/OgN4QapE58YS0PrdeYg+tkvZXt9jFzNIDFHrTLDok3BNoar7/svng4YoJD48cF4ruEUgdnQC2/vjHnD5R1C4Bpv1VSGmbs+a/rpWmh1Y6H4ndV7q9QHsW679NJARtyTBwhFp4QteamMR+v8LsmYu3dNnV9NAuBtoCpuS4sVK433C7Gl56MGzjF/5uKzf0kIp+eAD6q/mJt5Iful6xlRs6UCUM/ad3pX3B1mS4XSWtL2xI+0hhbT2mo35LjtojkF104AahFp7T9p9N0vL3tdL63AZnAVdPAOtT2eLkDbPo4JHmBC2223T2P6Vj0TZbpV52tR7IOc7pCFQE28bTnzSHnFzRvfTDbz/CVlDt87dK20ubpH3uZmcHfrOKc6XoI6Ok+BNjpfAAHjCg/wi18LRtV74gLU+vs1Vq6Kd+bTWGD2p9Zp1sveIFW7kx5AcHmt6jwEDphy798OXS0J8dJEWHhXNP/a64+OBbdNBIGXrdR2wFDAx9auFpWRUO+g7yMa5Xie641F2/wFZu6Fe6BFoMVv6MIc4DZ911C8xrAulBj1mkAqEWgBG7b7nzbhRVV8yxV8DgVF4ySyI57t7C9LUQu3+FrQD4AaEWgDlNrn1pXSr+6G6SP63aVsDg6Hjlss+6ne7XeNdS3/RuBUCoBZDUcOsip6ebdUpT5SWzbQWkRvlZU8wpeVf0oKr2xgXgD4RaIOS61jRK02OrbeVG2ef2pictUk5Py+v4apea/vSmeY0A8D5CLRBytT951enhuexovlSEcPQo0qP0k+Mld6zDMdbJ14Z5jQDwPEItEGI60U37T7qkT9J0ghjgRESk6kq3BxD1NdL6/AZbAfAqQi0QUqaF1w1uW3jpE7SS48fZCnCjYPZQ0+fUpbrr5pvR3gC8i1ALhJSOv+xe12wrN8wTNEa1Iw2il85OvqO5+2XT10rswZW2AuBFhFoghOKxTmm4fbGt3NC57foEDUiH3DGlUnbyRFu50fCrxea1A8CbCLVACNXf9rppV+SKNsWv1CdnQBpVnDvNfYsvxx8GAQwcoRYIma51TdL0xzdt5UbpqRNNc3wgnbTFV8VXptnKjdjDq8xrCID3EGqBkKn72atOD7zok7KKs6faCkivss9MkJwxJbZyIPnaqbtmvi0AeAmhFgiRtpc2SdvLm23lRvS86eaJGZARWRGp+vo+tnCj7cWNzl9HAPqPUAuERTwhtT9320Ren5CVnjTeVkBmFH54pPNDirU/m+f0Gw8A/UeohbfxnpEyuo/WeQuvy/c1T8qATDPt5By3+Gp6xO3edAD9Q6gFQkBPbWvHA5cKDxwhhQcMtxWQWTr4w/W3BvW/dNtFBED/EGqBENA2RE77a2ZFpPIyt/sYgf5yvb/b9Hv+9RJbAcg0Qi0QcKaF10OrbOVG6acnmOb3gJekoxNH04MrpXtTi60AZBKhFgi4+usXSKI7bqvU0ydh0XPc9gYFBsp1z2R9bdVdS4svwAsItUCAtc/fKq3/3mArN7TZvcspTsBgpGO6Xeuz681rDUBmEWqBoEqI1P4kDS28Tp5gK8Cbig4d7b7Fl77W6NYCZBShFgiopsdWS9eaRlu5UXnxbPMkDPA60+LLYbc5fa3paw5A5vBuBARQor1HGm5dZCs39MlX0SGjbAV4m7b4KjlhnK3c0NecvvYAZAahFgighjuWSE99h60ciNgnX4CPRM+fIZGCbFulnr7mGu6kxReQKYRaIGC0vVDsvuW2cqP0hHHmyRfgJ9nRfKk4y22Lr9j9y2nxBWQIoRYImPob3Lbw0iddFefPsBXgL2WnTXLb4qszLvU3LrQVgHQi1AIB0rG4RlqeXmcrN/RJlz7xAvwokpcl0Qtn2sqNln++Y16LANKLUAsESO1PHbfwGlEsZadPshXgT8VH7ib506ps5Ybr1yKADyLUAgHR/MQa6VxRbys39AkXLbwQBFVX7Guv3NDXYvNf1tgKQDrw7gQEgLYRqr9xga3c0Cdb+oQLCIK8vaJScsxYW7lRfwstvoB0ItTC25jQ0yeNv33DbQuvJNdPtoB0i37VcYuvbW3mtQkgPQi1gM+ZN8573L5x6hMtfbIFBEn2kEIp/+JkW7mhr019jQJwj1AL+FzdjQtNGyFX9EmWPtECgqj8C5NNuHVFX5v6GgXgHqEW8DE9jNLy5FpbueH6TR/IJG3xVem6xVfyNer6ECcAQi3ga7U/nWev3EjH17NAphUftYfz7TWuX6sACLWAb7X8/W3pWFxrKzeiX5tpnmQBQVd1xRx75Ya+VlueettWAFzg3QrwIbNP7wa3LbxMy6NP7GErINjyp1VL8cd2t5UbddcvcLr/HQg7Qi3gQ42/W+b8RLXrJ1eA11RePMvpNxP6mo3du8xWAFKNUAv4jPajbbx7qa3cKP6ojhGtthUQDrqHvOz0vW3lRsNvljrvKQ2EFaEW8Jn6mxY6nVKkT6p0Ly0QRhVnTpHsaL6tUs9M/0u+hgGkHqEW8BEzT/6Jt2zlRtlpkyRnRLGtgHAxfZkdf6jT1zAtvoDUI9QCPmLaAjkcHaxPqCrOmmorIJxKjt3TbYuv5GuYFl9A6hFqAZ9ofWad+xZejmfhA74QSU+Lr9Z/rbMVgFQg1AI+kOiOm3ZALuWOLZeS48fZCgg3PShZdPgYW7lRd90C89oGkBqEWsAHYr9fId2bWmzlRtWVc8wTKgDbmRZfOe7eJvU1ra9tAKlBqAU8Lh7rlMY73bbwKjp0tBTMHmorAEoPTJadtpet3NDXtr7GAQweoRbelnB4Kson6m9ZJPGWLlulnj6Jqrx0tq0AvFf5l9y2+NLXtr7GAQweoRbwsK41jdL0pzdt5UbpKRNp4QXsQFZxrlScN91WbuhrXF/rAAaHUAt4WO1PXnXawiurLE8qvkwLL2BnSk8cbw5SOqMtvvS1DmBQCLWAR7U+v0Ha52+1lRvR86abJ1EAdkJbfOlBSof0ta6veQADR6gFvCiekLrr5tvCjZwxJVJ60nhbAdgZPUhZdPAoW7lhXvPJ1z6AgSHUAh4Ue2ildK9rtpUbVZfvm7wD0MML6KvoJbOcvmb0Na+vfQADQ6gFPEbb+zTctthWbhQeOEIKDxhuKwB9kTumVMpOmWgrN/S1T4svYGAItYDHNNyefFNz2MJLnzRVXraPLQD0R8U508wBS1f0ta/3AAD9R6gFPKRrXZPEHl5lKzdKPzXePHEC0H+mxVcy2Lqk9wC9FwDoH0It4CF117g9KKJvyNFz3fbcBIKu7NMTzEFLZ/SgqN4LAPQLoRbwCG3p0/biRlu5UfEVt1+dAqGQFZGqy9y2+NJ7geuWfkDQEGoBL4gnnDdfNy28Tp5gKwCDkY7DluaeQIsvoM8ItYAHND3ifkxm5cWzJZLDSx5IlcrL55intq6YMdnJewOAvuEdDsgwPe1c/8vXbeWGaRx/iNvG8UDY6IFL1wNM9N7gtBsKECCEWiDDGu5Y4rYvZRpGfAJh5XrUtOlbnbxHANg1Qi2QQd2bWqTpAbcThEpOGCe5Y8ttBSCV9OBlxZen2soNvUfovQLAzhFq4WlBPyJRd+18SXTHbZV6kYJsiZ4/w1YAXCg9ZaLkjCi2VerpPULvFQB2jlALZIi262l9dr2t3Kg4a6pkR/NtBcAFPYBZ+fXZtnJD7xW0+AJ2jlALZELCtutxSJ8clZ0+yVYAXCr6yGhzINMlc8+gwxewQ4RaIAOaH1/tvIVX9MKZtPAC0sgcyHTX4cvcM/TeAaB3vOMBaZZo75H6WxbZyo38aVVSfORutgKQDnogs/SEcbZyQ+8deg8B8EGEWiDNGu5cIj31HbZyo+qKfe0VgHSqOH+GOaDpit479B4C4IMItUAaaVue2P3LbeVGyTFjJW+vqK0ApJMezKw4222LL72H0OIL+CBCLZBG9TculESnwxZeeVkS/SotvIBMKvvcJLctvpL3EL2XAHg/Qi2QJh2La6Tln+/Yyo3yM6ZI9pBCWwHIBD2gqQc1XdJ7id5TAPwXoRZIk9qfum3hpWG2/IuTbQUgk/Sgph7YdMn1PQXwG0ItkAbNf10rnSvqbeVG9GszzfYDAN7g+sCm3lP03gJgO94BAcfM/reb3e5/04NhJZ/Yw1YAvMC8Lo8days39N7icp8+4CeEWsCxxruXSs+2Nlu5UXXFHHsFwEuiF85y2+IreW/RewwAQi3glHnD+e0btnKj+KO6d6/aVgC8RFt8ud7rrvcY1x+cAT8g1AIOuf5q0LTw+prbU9YABqf8C5OddiXRe0zdTbT4Agi1gCPpOMRRdprbfpgABk8/fFZeOMtWbrT8zf1hVMDrCLXwtoT924dqfzrPXrlhJhed5XZyEYDUKD5qd+eT/lzfcwCvI9QCDrT8Qxuj19rKDZ0c5vIACoDUcn2gU+85eu8BwopQC6SYaeHleH9b7thyKTl+nK0A+IEe6Cz++O62cqPuuvm0+EJoEWqBFIvdv1y6N7XYyo2qK+eIRGwBwDcqL5rldEiKdkGI3bfMVkC4EGqBFOqp75CGO5fYyo2iQ0dLweyhtgLgJ2ac9ef3tpUbDXctNfciIGwItUAK1d+ySBLtPbZKvUhOllReOttWAPyo/Iwp5qCnK3oPcj3FEPAiQi2QIl1rGqX58dW2cqP0lIm08AJ8Tg94Ri9021+6+c9vmXsSECaEWiBFan/yqtMWZFlleVLxZVp4AUFQcuyeblt8Je9F5p4EhAihFkiB1mfXS/v8rbZyI3redMkqzrUVAL9z3eJL70l6bwLCglALDFKiOy511863lRs5Y0qk9KTxtgIQBKbF1xFjbOWG3pv0HgWEAaEWGKSmB1a6b+F1+b7JVys9vICgiWqLrxx3b8V6b4o9sMJWQLARaoFBiMc6peEOty28Cg8cIYUHDLcVgCDRg59lp+1lKzca71hq7lVA0BFqgUGo/+XrEm/pspUDWRGpvGwfWwAIovIvuW3xpfeo+lsX2QoILkItMEDaLqfpkTdt5Ubpp8ZL7phSWwEIIj0AWnHedFu5ofcqWnwh6Ai1wACZdjlxdz289I0ueq7bNzoA3lB6YvID7NhyWzlAiy+EAKEWGIC2Fzc6b+FV8ZVppjctgBCIiFRdmYYWX89vsBUQPIRaeFvC4TSDgYonpPaa12zhhmnhdfIEWwEIg4LZQ6XokFG2cqPuuvlOv2ECMolQC/RT7OFV0r2u2VZuVDpu8wPAm6IXO27xlbx3xR5aZSsgWHjXBPpBTxE33L7YVm6YpzUfGW0rAGGiB0Ndf0vT8OvFtPhCIBFqgX5ouM3xm0Ea9tUB8DbX++lNf+1ksAWChlAL9FHXuiaJPbTSVm6UnDDO7QloAJ6Xjs4nugVB72lAkBBqgT6qv9btAYtIQbZEz59hKwBhpj2q9cCoM8l7WZ3e04AAIdQCfWBa4byw0VZuVJw11elUIQA+khWRqm+43YrUlrynuW5NCKQToRbYlTQ0Ld8+/32SrQBApPBDI6TwgOG2csP1EBkgnQi1wC40/cn9eMnohTMlksfLEcD7VV4+xzy1dSUd476BdOFdFNgJbeFVf8siW7mRP61Kio/czVYA8F+mxdenxtvKjfpfvm7udYDfEWqBnWi8c6nzfo5VV+xrrwDgg7QTgnZEcEXvcY13LLEV4F+EWmAHuje1SOz3K2zlRsnRe0jeXlFbAcAHac9a7V3rUuyBleaeB/gZoRbYgbrrFkiiO26r1NM9tNELZtoKAHZMp4y5bPGl9zpafMHvCLVALzoW10jrv9bZyo3yM6ZI9pBCWwHAjkVysqTy4tm2cqP12fW0+IKvEWqB/6UtvH7qtoWXhtnyL062FQDsWtEho6Rg9lBbuWFafNHhCz5FqAX+R/MTb0nninpbuaHbDmjhBaC/qq6cI+Kuw5dp8dX8+GpbAf7Cuyq8Lc1PDBLtPVJ/00JbuaEHw/SAGAD0V+7Ycik9YZyt3NA2hnovBPyGUAu8R8NvlkpPfYet3Ki6wu3oSwDBVnH+DKctvvQe2HAnLb7gP4RawOrZ1iaxe5fZyg0dspA/rdpWANB/2dF8KT/T7Z782P3LafEF3yHUAlbdDQsk0em4hdeFtPACMHhln5skOSOKbZV6ei90vRULSDVCLZCkLbxa/v62rdwoO83tmxCA8NAWX9GLZtnKjZZ/vGPujYBfEGqBJOctvKL5UnHWVFsBwOAVHzFG8qdV2coN1/dGIJUItQi9lifXOm/hpQc7IgXZtgKA1Ki6Yl975YbeG5v/utZWgLcRahFqum+s7ka3+8bS0YIHQDiZFoHHjrWVG/U3L3R63gBIFUItQq3xnjdM1wOXXDdLBxBu0QtnOf0mSO+RjXcvtRXgXYRaeFq8MfU9Y+MtXeZPT2178kb9hl11o+jQ0c7HWgIIN7Nn/8wptnKj8Z5l0lPTZu6dieSfVOtJ3usTHQx8wOBEEkn2Gsi4RGePtL24UVr+tV7antsg8dbU3zzflT20SHq2ttrKjdGPHic5o0psBQBu6L1z/SefcHpPyx5S6PybrcIDhkvhh0dK4YEjJXe3UrsK9A2hFhkXb+2Wthc2SOsz66T1P5sk0dZt/4u/aR/JyovdttwBgHdpW8Jt3/6Prfwvb+9KKTt5ghR/bA/T5xvYFUItMibe1CmNv10msQdWBO5rp6yyPBn92PGSVeJulCUA/K9NZz4lHUtqbRUMWeX5UnrCnlJ26l7maTGwI4RapF2ivUca71suseQfDbZBVHX5HCn9zARbAUB6aAuujac/aatgiRTmSPkXJ0v55ydJJI8WifggQi3SRlvCND28Uhp/+4b01Kf+AJhX5IwpkdF/OFYki5YHANJv23f+Iy1Pup2QmEk6mVFHjhcfuZtdAbYj1CItOlc1yNbLn5fu9c12JbiG3XSYOewAAJmgh7nWn/h44HvLFswaKtXf3V9yRnMYF9ux8xrOxe5dLpu++PdQBNrCD40g0ALIKN13Wv6FybYKrvYFW2XDKX+RhtsXMxwCBk9q4UxPXbvUfO8laXt5s10JvlEPHyO5e5TZCgAyQw/frj/xz6a3bBjotq9h1xxiJjgivHhSCye6NzabwwphCrR6MIxAC8ALIvnZEv3qDFsFX/e65HvOGU+ZPucIL0ItUq5rTaNsOvMfzpt0e0lWca5Ez51uKwDIvJJjx0reXlFbBV+itVu2XPpv55Mi4V2EWqRU57I62XTWP83WgzCp+PJU05sWALyk6oo59iok4gmpv2WR1F0z3y4gTAi1SBndtL/53GcC23t2Z9h2AMCLOlc32qtw0aE+DXcssRXCglCLlGibu1m2fO1Zibd22ZVw2frNF03bMgDwitbnN0jtj+baKnwafrU4GW5X2gphQKjFoJketJc9H7hRt/1h9nJ97V/SvanFrgBA5nQsrpFtV71oq/Cqu+a1QA+iwPsRajEoPbXtsuXi5yTR1m1Xwkt/Fpu/+ozEY+HbfgHAO7rejsmWi5L35RA/aHivmh+8bEI+go9QiwHTG6Y+nezZ2mpXoG1ltlz8rCS6aAQOIP30kO7m88J5tmFHdDCDPnzhm7TgI9RiwGp/8Rr7SHvRsbhW6q7l5C2A9Nv6jedD1U6xr/QbtC0XPWsrBBWhFgPS9sJGaX50ta3wv5r+sEraF26zFQC4F3twpXS8ztfsO9K1Jib1Ny20FYKIUIt+072j2773kq2wIzXffUnirew1BuCefrVefyOBbVca710uXW+Fs81ZGBBq0W96opbDULtm3mRuWGArAHBn23dekkQnB8N2KZ6Qbd99yfyN4CHUol9a/v62GbKAvml65E1pn7fFVgCQerrdqWMR2536qnNFvcQeWmUrBAmhFn2W6I5LHU8e+6326nnJH54tACCFdItT/a2v2wp91fDrxRJvCeewoCAj1KLPmh5YyanaAeha1yQtT79jKwBInaaHVtK+awB0C13jXUtthaAg1KJP9BMtc7QHruHXyZ8dT2sBpJD2Cm+8b7mt0F+x+1fwoCZgCLXok9jvV/BVzSDoadvW59bbCgAGr+lPb0q8ocNW6C/dUtdw9xu2QhAQarFLiZ6END3MpvrBariTJ90AUkOnFjb+dpmtMFDNj6+WRDtdI4KCUItdav3H22b0Iganc3m9GVoBAIPV/MRb0lPDV+eDpYG26TEGCQUFoRa7pFNqkBra4gsABouJjqmjh+0QDIRa7FRPfYd0LKm1FQar7eVN5nAHAAxUvDF5X36jzlYYrK53mqRjMeOFg4BQi51qe5Gvy1NJ98G1Pr/BVgDQfy3PrLNXSJXWf3NfDgJCLXZKnywitVqfpQsCgIEjgKUe3WmCgVCLHUvwpNYFPSymT2wBoL90+1L7K5tthVTpWhOT7o3NtoJfEWqxQzofO95Mb9pU036/7a9usRUA9F1bMtDyodiNVrrT+F4kkWSvgfdp/M1SZoo7UjBriBTMGWYrAOibtrlbpGPRNlshlYo/vrsM+eGBtoIfEWqxQ5u/8rS0L9hqKwAAgitnVImMfvQ4W8GP2H6AXiXauqWdpwEAgJDo3tDMoCGfI9SiV51rGkXiPMQHAISHTn6EfxFq0at4fYe9AgAgHOiA4G+EWvSqp4FQCwAIl+6tbfYKfkSoRa/ihFoAQMj0bGmxV/AjQi16xZNaAEDY8KTW3wi16BWhFgAQNvGmTnsFPyLUoldsPwAAhE4PXX/8jFCLXvXQ/QAAEDIJQq2vEWrRK57UAgBCpyduL+BHhFr0KtHRba8AAAiJSMRewI8ItehVVmmevQIAIByyynLtFfyIUIteZZXn2ysAAMIhu6LAXsGPCLXoVVYZT2oBAOGSVUmo9TNCLXqVTagFAIRMdpRvKf2MUIte5YwotlcAAIRDzrAiewU/ItSiV7njK+wVAADhkLtHmb2CHxFq0au88eX2CgCAcCDU+huhFr3KGVkikcIcWwEAEGyRohzJri60FfyIUIsdyp9Wba8AAAi2vLF8Q+l3kUSSvQbep/G3b0j9zYtshVSqunyOlH5mgq0AoG9iD6yQumvm2wqpVPbZvaTy0tm2gh/xpBY7VLj/CHuFVMubFLVXANB3BfsMs1dItcIDeM/zO0Itdihvryjjch3ZctFzEntwpUicL0oA9F3ehAp6qbqQFZGCOXxg8DtCLXYsIlJ0+BhbIJXiTZ1S94vXZMMpf5WORdvsKgDsWLy1S+queU16Yp12BalSeMBwieQRifyOf0HsVOlxY+0VXOhaG5NNZ/9Ttl31ovTUtNlVAHiPhEjzY6tlw4l/ltgDK0V6+IYn1Yo/tru9gp9xUAy7tP6Ex6V7Y4ut4EqkIFvKz5gi5Z/fmycGAIzOZXVS84NXpHNVg11BqkVysmTM05+SrCLaWPod75zYpdJPjrdXcCnR3iMNt70uGz7zhLT+a51dBRBGPQ0dUvP/XpGNX/g7gdaxoiN3I9AGBE9qsUs929pk3dGP2grpUvihEVL5jX0kd0ypXQEQBrH7V0j9r16XRGu3XYFLI+89yhyMhv/xpBa7lD2kUEpPHGcrpEvbS5tk48l/lfobF0qijTc3IOja52+VDZ/5i9RdN59AmyYFs4YSaAOEJ7Xok+5NLbL++MdthXTLriqQ6AUzpeRYDu4BQdO9tVXqr50vLU+z7Sjdht18mBTuP9xW8DtCLfqs5vsvS/MTa2yFTMifWiVV39zP9KoE4G+Jzrg03vOGNN79hiQ6euwq0qVg9lAZ/qsjbIUgINSiz7rWNcmGT/+FgQGZlhUx20GiX50hWWUMxwD8qPXZ9WabAZ1lMiQiMurBoyV3bLldQBAQatEv2vjb9ElExmmgjZ47XUo/Nd4EXQDepw8Han841+yfReaUnjxRqr6xj60QFIRa9It+Rbb+pCekZ2urXUGm5e5ZLtXf3FfyZwyxKwC8Rg97Nty+2DwUSHTH7SoyQQ8/j/rDsbTxCiBCLfpNT+VvufBZW8Erij++u1RePEuyqwvtCgAvaP7rWqm/aSFTAz1i+K2HS8G+w2yFICHUYkBqr54nTY+8aSt4RaQwRyq+NEXKTp9kpuQAyBwdmlD747nSsaTWriDTio/aXYb84EBbIWgItRiQRGePbPz836XrrUa7Ai/JGVMiVZfuI4UHjbQrANIlHuuU+lsWSdOjqzlY6yE5I4tl5P2fkKziXLuCoCHUYsD0wMPG0/5mxrvCm/Qrtupv7Sc5o0rsCgBnkgG26Y9vSv1tr5tgC+/QIDvino9L7m5MaAwyQi0GpeWpt2Xbt/5jK3hRJDdLyj43SSrOmiqRgmy7CiCVdItBzQ9e4dsrL8qKyPBbDpOCOeyjDTpCLQZNv2bT5uHwNp1KpgfJio/aw64AGCw9/FV3wwJpefJtu5J5kfxsKdx3mLS+sNGuhFvlJbOl7LS9bIUgI9QiJZg2lgyNlQXSU9duK+8qmDVEKi+fI3njmUoGDEbjPctMmy4vTQMr/tjuyRC3vQtK3fULJHbfcvtfwkkH1VR9az9bIegItUgZbfOl7b7CSN9IhvzoQBPs629eKD213g+3pZ+esH0qWQmHJoD+aJ+3RWp+NFe6NzTblczbUb/qumvnS+z3K2wVLnqPq0p+gNfpYQgHQi1SRp9WbL3yBWkL2VdeJceOlervHWArkXhLlzTesUQa7/X+ExKdSlZxzjQpO3miXQGwIxpi666ZL63Pb7ArmacHoPTDaelnJtiVD6r7xWsSezBckyDLvzhZohfMsBXCglCL1IonzBOM5sffsgvBZr7a+uZ+vT4JMOMwr55nnup4nXnK8539JX9qlV0B8C7t8NJw11KJ3bdMEp0emQaWFZHSE8aZ4KYfTnelMfn/f+3KICF4x684d7pUnDXFVggTQi2caLhjiTT8arGtAij5hhI9f7p5GrArrf/eYL4C9NJXlTuih8jMfrzKArsChJt2eKm7YaGnRoPrh0/9MJ03oX/74lv/tU62ffsl02c8iPSAXPX3PyTFR4yxKwgbQi2c0W0I2773UuD6NepTkaE/P1gKZg+1K7umT3di9y6ThrvfMDPgvSxSlGPaf+lpYaaSIay61sak5odzpWPRNruSeXr4K3rhTCn5xMA7mHQuq5MtFz/ni0Ot/ZEzvEiG3XiY5I4tsysII0ItnOrZ1iZbr3hBOhbX2BV/y9u7Uob+4mDJGVpkV/pHfx51182Xln+8Y1e8y0wlu2JfKdx/uF0Bgi/eZKeB/dFbY8DLv7C3VJw91YzCHqzuLa2y9dJ/S+fKervib4UfGmEO6maV7nobBoKNUIu0aLjtdWm4c6mt/EkPY5SfsevtBn3RvmCr1F79qnSt8X6j9qJDR0vlpbMlZ0SxXQGCyUwDu3WRp75d0sBWdcUcJ1MBG/Xbo9u81ZKsv/Sgq4Z9QBFqkTadqxvNwSkvfZ3XF+ZNRUfNDhvY09kd0pGajyTfRH/p/ZGakTydSra3VHxpClPJEDj6lbxOA+tc1WBXMi9ndIn5MFl08Ci74oZ+e6T/2/3WjrH4o7tJ9OJZA/7WDMFEqEXaaTuc+hsWStfbMbviTXoYQ0/Ruv76XQOtBlsNuBp0vSw7+QZippIl31AAv9N9pfU3LZTmv6zxTFcA3V5QceZk8yFSP0ymiznQ+rNXzdYEL9PDcXpIjk4t6A2hFpmRDG8tz6yT2P0rPLffVm+aFedNd/6E5H/pzHh9YqIz5L1OG7xXf3s/yd2DQxnwn0RPQpoeWCENv15i+kp7xXungWWCHmhteWqtxB5YKZ0rPLTfNiLm4ULZqXtJ4YEjTQ30hlCLjOtYWmtGOeoTXO0HmQnawLzoyN3MIIWCme+fyJNupoXQ9QvM14JeV/qp8dunknFAAz6hfaNrf/aq6W7gFbnjyqX6qg9OA8sk3Sam4bbln5k91Fpy4jgp/9wkPkCjTwi18JS2uZtNK7C2FzdK1ztNdtUNDWK6X1Z7GhYd7q2+hqbZ+2+WmobpXpdVni/R86abgAt4VffWVqn7xXzTq9UrzDSwC2aYca5eFW/tltZn10vLk2vTsu9W9+wX7jdcCj880mxz4gMz+oNQC8/q3tgsrc8nA+4LG6Tt5c12dXDyJ1dKgd4wDxwhBbP63mc2U7o3tZgRl7rfzevMXjd92jSt2q4AmaeDBhp/u0wabvfWMJjSk+y3HH2YBuYVuv9fv0lqX1QjnavqpWv14Lu3aIjNHVsuBTOGmPuyPmgABopQC9/oqW03BzviDR3SXdMmca0bO6Qnea3/TdvS6MEKffoRKclL/p0j2RX5ZgSs+TOm1P6/5D/6hKTu56+Z0bteV3LMWIl+baZkVzGVDJmlT2XrrltgPhx6Rf7MIVL1jX0kb2LUrviXfmDQjhGdy+ule3PL9ntx8h7d2zaySG6WZA8plJzhxZIzslhydyuVnNGl3CeQUoRawCf0cEvs98ul8ddLJd7qncMtvckqypXyL0+Rss9Okkg2pzqQXvrhr/aHc6V9/la7knka6PTD3mCmgQHYOUIt4DOmDdGNC6X5r2uSSdcuepQ+HdctCQX7DrMrgDv6Ya/h9iXS9OBKSXTH7Wpm6RPKss/ulbJpYAB2jFAL+JQXG8bvCFPJ4FTyXUx7zWrPWf3Q5xX6Ya5aB7c4mAYG4IMItYCf6Zv546vNrPqe+g676E2RvGwzv778zMnmGkgF/VBnPtwlP+R5RbqmgQF4P0ItEADma9dfLpbYwytFerz9ks4ZXiTRi2ebVmrAQJlJfDctlKbH30oW3vid/79pYJ/fWyI56ZsGBmA7Qi0QINpQvvbqeZ46ILMjTCXDgCQDbOzhVdLwq8USb+q0i5mX6WlgAAi1QCB5sZVRr7IjUvaZiVJx3jTTMQHYGZ1yVfPDud6aBrZnuVR/01vTwICwItQCAfVu0/nG375hevh6WXY03zSiLzl+XPKuZBcBS/uf1l07X1r+kdmRre+lQxPMJL2TxicLfmkBLyDUAgGn40HrNRA87Z3xoDuiU8mqv7O/5O1daVcQZtqWK/a7ZdLwm+QHs7Zuu5phyQBb+slxEj3fX9PAgDAg1AIhoftsdb+tl7667VXETiW7aJaZCIdwan1+g3k6272+2a5kXv7UKvOhS7ccAPAeQi0QJnrI5qFVZg6+lw7Z9EbHHVd8ZZqUnjKRqWQh0r2hWWp+NFfa522xK5mn08AqL5wpxUcxDQzwMkItEEI9DR3ScMsiT7VD2hEzlezb+0nB7KF2BUGUaO+RhjuXSOy+5ZLo8tA0sNMmScVZU5gGBvgAoRYIMW1cX/vjudKxpNaueFfRYWOk8rLZkjO0yK4gKFqefFvqblwgPdva7ErmMQ0M8B9CLQBp/utaqddQUeudEaM7olsSyr+4d6CmkukggXhLl8RbuyWR/FtFinLMFows/bs8mHuLO99Mfqj6yaumVZdXaIitumwfKTxopF0B4BeEWgCGni5vuGOJNN6zzK54V86IYqn8+mwp+shou+IPnSvrpXN58s+aRulaE5Outxr73Es4u6rAHFDK3b1M8vTv5B/tEqGh12/MNLBbF0nTH9+0K5kXyc822wzKz5xiVwD4DaEWwPt0rWuSup+/Jm0vbbIr3lUwZ5hUXT5Hcsd6cyqZhre2VzZL24sbzc+zpy71T8Lz9oqaU/kFM4dK4YEjPN9mqunR1VJ/8yKJN3bYlcwr/uhuUnnJbHMgDIB/EWoB9Mq0VLpuvnSv805LpV7pVLJTJkrFOd6YSqZPvFueXS8tf1srbXM3i/Sk7xarWzI0oJV+eoIJul6i+7Z1/7bu4/YKMw3sO/t77mcFYGAItQB2qvHuN8y2BK9PJdN9p5VfmyElJ4yzK+nVsaxOYvevkNZn1plpbpmWO65cyj+/t+n5m0n6dLr+xoXS/Jc1diXzTLu486dL2ckT7QqAICDUAtglM6b0hgXmlLrX6T5TM5VsQoVdcUvDbMNtr0vbf7y5XSN3t1JzuE6f4KZznGuiJyGx3y+Xxl8vlXjr9sNvGcc0MCDQCLUA+qx94Tap/fE86VrTaFe8q+T4PSX6tZnOppLpZDYN+m0vbLQr3mbC7bnTt4dbx3Qfce1P53lq60r+zCFSfdW+TAMDAoxQC6B/4glp+tNqqf/l65467NObrNI885Sy7OQJKXtKqXtm9X977KGVad0vmyp6uG7IDz4k2dWpPxSlnRzqrpkvrc+ttyuZt30a2CwpPmp3uwIgqAi1AAbEi22ZdiR3bLlUXTFHCvYZ3FSylifXSt11C5x0MUgnDfvV39nPDLRIBd1D3Pib7XuvvaT8jMlScdZUiRQEp6cxgB0j1AIYFO21WvPjeZ5qoL8jxUfuJtFLZvV7KpmOba35fy/7Yk9xf5R9bpJUXjhzUE+xW55eJ/XXz5fuza12JfOYBgaEE6EWQEq0/OMdqb9hgXRv8U646Y0+tSv/4mQp/8JkieRl2dUd09GtWy55TjpX1NuVYCnYb7gM/dlBpiNAf+ie4tqr50n7/K12JfNyxpRI1aVMAwPCilALIGUS7T3SePdSabhzqV3xrpzhRVJ56eydfgXfsbhGtlz8nNlqEWS5e5TJsBsPNZPadkU7GTTctlhiv19hVzLPTAM7e6rZbgAgvAi1AFLOiweGdkS/qq7SU/FjSu3Kdp3L6mTTuU9LorXbrgRbdjRfht/50Q/8HP5P8p2i+Ym3zDQwL+0p1gNglRfNcnLwDYC/EGoBOKNfTdf+cK4ZvetlkZwsKTt1oumUECnMka41Mdn0pack3uyR/qpposFwxJ1HSs7I9+9F1YBfc/U887dXMA0MwP8i1AJwLnbfcmn49RKJt3g7JGZXFZivsBvvWio99d5uV+aKbkEYfkcy2A4tMj+D+psXSvPjb9n/mnk6NCF63nQzChgA3otQCyAtzLjUm5IB6Yk1dgVepYMaSj85XhruTH4Q8dDT6tJPjWcaGIAdItQCSCsvfpUNb9MtBrrVgGlgAHaGUAsg/ZJ3HS8eOoK3MA0MQH8QagFkjGkP9avFEnvQnyNn4UYkN8sMhmAaGID+INQCyDjtjqBdErzUyB+ZoYMTqi7bh2lgAPqNUAvAM1qfXS91182X7o0tdgVhoSFWR9tq32AAGAhCLQBPSXTGpfGeN6Txt2+YCWUItkhRjlScOUXKTp9k+gUDwEARagF4UvfWVqm/boG0/PMdu4KgYRoYgFQi1ALwtI5F26RGp5KtjdkV+B3TwAC4QKgF4H3xhMT+sMp0SojHOu0i/CarPH/7NLBPjksWEbsKAKlBqAXgGxpo629ZJE2PrjZBFz6RDLClJ42X6FdnSFZJrl0EgNQi1ALwnc5VDVL747nSsaTWrsCrmAYGIF0ItQB8q+XJtVJ340Lp2dZmV+AVZhrYRbOk+ONMAwOQHoRaAL6mbb8a7lgisfuXS6IrbleRKZG8LCk7jWlgANKPUAsgELo3NEvtL16Tthc22hWkW9FBI6WSaWAAMoRQCyBQ2udtkZofzTUhF+nBNDAAXkCoBRA4ie64xO5bLg13LZVEa7ddRaqZaWBfmiJln2MaGIDMI9QCCKyeunapu36BOVAm3OlSTp/MDr/1cFsBQGYRagEEXtsrm2XLBf+yFVJp9xdOlkg+B8IAZB7fFwEIPL4ad6d9/lZ7BQCZxZ0eQOB1LK6xV0i1trmb7RUAZBahFkDgMXnMHe02AQBeQKgFEHjtC7fZK6Ra15pGkThHMwBkHqEWQKB1b2qReGOHrZBqic64dK1rshUAZA6hFkCgsZ/Wva41MXsFAJlDqAUQaF3v8BTRtc7VjfYKADKHUAsg0OJNnfYKrvRsbrFXAJA5hFoAgRaPEWpd44MDAC8g1AIItHhTl72CKz18cADgAYRaAIHGk1r3eFILwAsItQACjcDlXqK1214BQOYQagEEWryF7QfO5fBWAiDzuBMBCLRIQba9giuRPN5KAGQedyIAgZZVlGuv4Eokjw8OADKPUAsg0CJFOfYKrkTyCbUAMo9QCyDQeFLrXnZ5vr0CgMwh1AIItKwogcu1nFEl9goAModQCyDQckcTuFzLGVlsrwAgcwi1AAItd/cyewVXckbywQFA5hFqAQRa7u6l9gqu5I4h1ALIPEItgEDLHVtur+BCdjSfPbUAPIFQCyDw8qdU2SukWv6MIfYKADKLUAsg8Ar2HWavkGr5M6rtFQBkFqEWQOARat0pmDXUXgFAZhFqAQRewcwhItkRWyFVssryJH8yWzsAeAOhFkDgRfKypfCAEbZCqhQfsVvyh2sLAMgwQi2AUCg5and7hVQpOnyMvQKAzCPUAgiFosPGSCQ/21YYrKyiXCncj73KALyDUAsgFDTQFh062lYYrJLjxybfQdh7AMA7CLUAQqP0hHH2CoNV9tm97BUAeAOhFkBoaGuv3HFMGBssfeKdM5IpYgC8hVALIFQqzp5qrzBQZafxlBaA9xBqAYRK8eFjJGdEsa3QXzpsgYELALyIUAsgXLIiEj1/hi3QX5VXzLFXAOAthFoAoVN81O6SP7nSVuirkhPHSR57kgF4FKEWQChVfXt/e4W+0L60POEG4GWEWgChlDehQkpPnmgr7IpuO8iO5tsKALyHUAsgtCq/NpNDY32g43BLjt7DVgDgTYRaAKEVKciWob84WCK53Ap3JGdYkVR/j60aALyPOzmAUMubGJXohbNshf815OoPm/20AOB1hFoAoVd26kQp+shoW+FdVVfuK/nTqm0FAN5GqAWApCE/OjAZ4KpshZJjx0rpp8bbCgC8L5JIstcAEGrxWKdsOuMp6VrXZFfCKX9KlYy4+2O2AgB/4EktAFhZZXky7JbDJLu60K6ET/70ahl262G2AgD/INQCwHtoi68Rdx4pOcOL7Ep4FOw7TIbfejgHwwD4EtsPAKAXPdvaZPM5T4dmK0LRoaNl6M8PthUA+A+hFgB2oKe+Q7Zc8C/pXFlvV4Kp4qwpUnHudFsBgD8RagFgJxKdcam7YYE0PbTSrgRHpDDHdH0oOniUXQEA/yLUAkAftD6/QWq+97LEmzrtir/lji2XoT89KPl3mV0BAH8j1AJAH/XUtEntz1+T1mfW2RV/qjh7qlScM81WABAMhFoA6Ke2lzZJ7dXzpHtTi13xh9w9y2XIDw+UvAkVdgUAgoNQCwAD1HD7Ymm8d7kk2rrtijdpm7KKL0+VkuP2tCsAEDyEWgAYBJ1C1vi7ZRJ7cKXnwm3umFIpP2uKlHxiD5GsiF0FgGAi1AJACvQ0dEjsvuXS/Phb0lPXblczo3D/4VJ60ngpOnyMXQGA4CPUAkCKtc3dLM1/XiOtz66TRHuPXXUrqyJfij+2u5SdOtE8oQWAsCHUAoBDbS9ulNYXNpq/U32wLH/mEPNUtvDDIyV/70q7CgDhRKgFgDTpeqtROpN/era0mvZgXRtbJF7fLvGmLom32D+xD/bB1YNeubuXSs7o0uTfZZI/vUryJ1fZ/woAUIRaAAAA+F6W/RsAAADwLUItAAAAfI9QCwAAAN8j1AIAAMD3CLUAAADwPUItAAAAfI9QCwAAAN8j1AIAAMD3CLUAAADwPUItAAAAfI9QCwAAAN8j1AIAAMD3CLUAAADwPUItAAAAfI9QCwAAAN8j1AIAAMD3CLUAAADwPUItAAAAfI9QCwAAAN8j1AIAAMD3CLUAAADwPUItAAAAfI9QCwAAAN8j1AIAAMD3CLUAAADwPUItAAAAfI9QCwAAAN8j1AIAAMD3CLUAAADwPUItAAAAfI9QCwAAAN8j1AIAAMD3CLUAAADwPUItAAAAfI9QCwAAAN8j1AIAAMD3CLUAAADwPUItAAAAfI9QCwAAAN8j1AIAAMD3CLUAAADwPUItAAAAfI9QCwAAAN8j1AIAAMD3CLUAAADwPUItAAAAfI9QCwAAAN8j1AIAAMD3CLUAAADwPUItAAAAfI9QCwAAAN8j1AIAAMD3CLUAAADwPUItAAAAfI9QCwAAAN8j1AIAAMD3CLUAAADwPUItAAAAfI9QCwAAAN8j1AIAAMD3CLUAAADwPUItAAAAfI9QCwAAAN8j1AIAAMD3CLUAAADwPUItAAAAfI9QCwAAAN8j1AIAAMD3CLUAAADwPUItAAAAfE7k/wdDDO6itmY/ugAAAABJRU5ErkJggg==;clipPath=inset(11.46% 15.67% 9.72% 19%);" vertex="1" parent="UEzPUAAOIrF-is8g5C7q-107">
          <mxGeometry x="321.17999999999995" y="387.76" width="78.79" height="91.25" as="geometry" />
        </mxCell>
        <mxCell id="WYUEGz_iVffdBYWURj4v-28" value="" style="outlineConnect=0;dashed=0;verticalLabelPosition=bottom;verticalAlign=top;align=center;html=1;shape=mxgraph.aws3.dynamo_db;fillColor=#2E73B8;gradientColor=none;" vertex="1" parent="UEzPUAAOIrF-is8g5C7q-107">
          <mxGeometry x="525" y="392.88" width="72" height="81" as="geometry" />
        </mxCell>
        <mxCell id="WYUEGz_iVffdBYWURj4v-29" value="" style="sketch=0;points=[[0,0,0],[0.25,0,0],[0.5,0,0],[0.75,0,0],[1,0,0],[0,1,0],[0.25,1,0],[0.5,1,0],[0.75,1,0],[1,1,0],[0,0.25,0],[0,0.5,0],[0,0.75,0],[1,0.25,0],[1,0.5,0],[1,0.75,0]];outlineConnect=0;fontColor=#232F3E;fillColor=#7AA116;strokeColor=#ffffff;dashed=0;verticalLabelPosition=bottom;verticalAlign=top;align=center;html=1;fontSize=12;fontStyle=0;aspect=fixed;shape=mxgraph.aws4.resourceIcon;resIcon=mxgraph.aws4.s3;" vertex="1" parent="UEzPUAAOIrF-is8g5C7q-107">
          <mxGeometry x="525" y="201" width="78" height="78" as="geometry" />
        </mxCell>
        <mxCell id="WYUEGz_iVffdBYWURj4v-48" style="edgeStyle=orthogonalEdgeStyle;rounded=0;orthogonalLoop=1;jettySize=auto;html=1;exitX=1;exitY=0.5;exitDx=0;exitDy=0;exitPerimeter=0;" edge="1" parent="UEzPUAAOIrF-is8g5C7q-107" source="WYUEGz_iVffdBYWURj4v-30" target="WYUEGz_iVffdBYWURj4v-27">
          <mxGeometry relative="1" as="geometry" />
        </mxCell>
        <mxCell id="WYUEGz_iVffdBYWURj4v-58" style="edgeStyle=orthogonalEdgeStyle;rounded=0;orthogonalLoop=1;jettySize=auto;html=1;exitX=0.5;exitY=0;exitDx=0;exitDy=0;exitPerimeter=0;" edge="1" parent="UEzPUAAOIrF-is8g5C7q-107" source="WYUEGz_iVffdBYWURj4v-30" target="WYUEGz_iVffdBYWURj4v-24">
          <mxGeometry relative="1" as="geometry" />
        </mxCell>
        <mxCell id="WYUEGz_iVffdBYWURj4v-30" value="" style="sketch=0;points=[[0,0,0],[0.25,0,0],[0.5,0,0],[0.75,0,0],[1,0,0],[0,1,0],[0.25,1,0],[0.5,1,0],[0.75,1,0],[1,1,0],[0,0.25,0],[0,0.5,0],[0,0.75,0],[1,0.25,0],[1,0.5,0],[1,0.75,0]];outlineConnect=0;fontColor=#232F3E;fillColor=#E7157B;strokeColor=#ffffff;dashed=0;verticalLabelPosition=bottom;verticalAlign=top;align=center;html=1;fontSize=12;fontStyle=0;aspect=fixed;shape=mxgraph.aws4.resourceIcon;resIcon=mxgraph.aws4.appsync;" vertex="1" parent="UEzPUAAOIrF-is8g5C7q-107">
          <mxGeometry x="105" y="394.38" width="78" height="78" as="geometry" />
        </mxCell>
        <mxCell id="WYUEGz_iVffdBYWURj4v-31" value="" style="sketch=0;points=[[0,0,0],[0.25,0,0],[0.5,0,0],[0.75,0,0],[1,0,0],[0,1,0],[0.25,1,0],[0.5,1,0],[0.75,1,0],[1,1,0],[0,0.25,0],[0,0.5,0],[0,0.75,0],[1,0.25,0],[1,0.5,0],[1,0.75,0]];outlineConnect=0;fontColor=#232F3E;fillColor=#DD344C;strokeColor=#ffffff;dashed=0;verticalLabelPosition=bottom;verticalAlign=top;align=center;html=1;fontSize=12;fontStyle=0;aspect=fixed;shape=mxgraph.aws4.resourceIcon;resIcon=mxgraph.aws4.cognito;" vertex="1" parent="UEzPUAAOIrF-is8g5C7q-107">
          <mxGeometry x="519" y="51" width="78" height="78" as="geometry" />
        </mxCell>
        <mxCell id="WYUEGz_iVffdBYWURj4v-32" value="" style="endArrow=classic;startArrow=classic;html=1;rounded=0;exitX=1;exitY=0.5;exitDx=0;exitDy=0;" edge="1" parent="UEzPUAAOIrF-is8g5C7q-107" source="WYUEGz_iVffdBYWURj4v-10" target="WYUEGz_iVffdBYWURj4v-24">
          <mxGeometry width="50" height="50" relative="1" as="geometry">
            <mxPoint x="235" y="371" as="sourcePoint" />
            <mxPoint x="285" y="321" as="targetPoint" />
          </mxGeometry>
        </mxCell>
        <mxCell id="WYUEGz_iVffdBYWURj4v-34" value="&lt;span style=&quot;font-size: 11px; background-color: rgb(255, 255, 255);&quot;&gt;&lt;b&gt;&lt;font color=&quot;#3333ff&quot;&gt;Configure Backend&lt;/font&gt;&lt;/b&gt;&lt;/span&gt;" style="text;html=1;align=center;verticalAlign=middle;resizable=0;points=[];autosize=1;strokeColor=none;fillColor=none;" vertex="1" parent="UEzPUAAOIrF-is8g5C7q-107">
          <mxGeometry x="105" y="240" width="120" height="30" as="geometry" />
        </mxCell>
        <mxCell id="WYUEGz_iVffdBYWURj4v-35" value="2" style="ellipse;whiteSpace=wrap;html=1;aspect=fixed;rotation=0;gradientColor=#470ced;strokeColor=none;gradientDirection=east;fillColor=#9b38c8;rounded=0;pointerEvents=0;fontFamily=Helvetica;fontSize=16;fontColor=#FFFFFF;spacingTop=4;spacingBottom=4;spacingLeft=4;spacingRight=4;points=[];fontStyle=1" vertex="1" parent="UEzPUAAOIrF-is8g5C7q-107">
          <mxGeometry x="24" y="201" width="30" height="30" as="geometry" />
        </mxCell>
        <mxCell id="WYUEGz_iVffdBYWURj4v-36" value="3" style="ellipse;whiteSpace=wrap;html=1;aspect=fixed;rotation=0;gradientColor=#470ced;strokeColor=none;gradientDirection=east;fillColor=#9b56c8;rounded=0;pointerEvents=0;fontFamily=Helvetica;fontSize=16;fontColor=#FFFFFF;spacingTop=4;spacingBottom=4;spacingLeft=4;spacingRight=4;points=[];fontStyle=1" vertex="1" parent="UEzPUAAOIrF-is8g5C7q-107">
          <mxGeometry x="234.91" y="195" width="30" height="30" as="geometry" />
        </mxCell>
        <mxCell id="WYUEGz_iVffdBYWURj4v-37" value="4" style="ellipse;whiteSpace=wrap;html=1;aspect=fixed;rotation=0;gradientColor=#470ced;strokeColor=none;gradientDirection=east;fillColor=#9b56c8;rounded=0;pointerEvents=0;fontFamily=Helvetica;fontSize=16;fontColor=#FFFFFF;spacingTop=4;spacingBottom=4;spacingLeft=4;spacingRight=4;points=[];fontStyle=1" vertex="1" parent="UEzPUAAOIrF-is8g5C7q-107">
          <mxGeometry x="519" y="24" width="30" height="30" as="geometry" />
        </mxCell>
        <mxCell id="WYUEGz_iVffdBYWURj4v-38" value="5" style="ellipse;whiteSpace=wrap;html=1;aspect=fixed;rotation=0;gradientColor=#470ced;strokeColor=none;gradientDirection=east;fillColor=#9b56c8;rounded=0;pointerEvents=0;fontFamily=Helvetica;fontSize=16;fontColor=#FFFFFF;spacingTop=4;spacingBottom=4;spacingLeft=4;spacingRight=4;points=[];fontStyle=1" vertex="1" parent="UEzPUAAOIrF-is8g5C7q-107">
          <mxGeometry x="105" y="364.38" width="30" height="30" as="geometry" />
        </mxCell>
        <mxCell id="WYUEGz_iVffdBYWURj4v-39" value="6" style="ellipse;whiteSpace=wrap;html=1;aspect=fixed;rotation=0;gradientColor=#470ced;strokeColor=none;gradientDirection=east;fillColor=#9b56c8;rounded=0;pointerEvents=0;fontFamily=Helvetica;fontSize=16;fontColor=#FFFFFF;spacingTop=4;spacingBottom=4;spacingLeft=4;spacingRight=4;points=[];fontStyle=1" vertex="1" parent="UEzPUAAOIrF-is8g5C7q-107">
          <mxGeometry x="321.18" y="364.38" width="30" height="30" as="geometry" />
        </mxCell>
        <mxCell id="WYUEGz_iVffdBYWURj4v-40" value="7" style="ellipse;whiteSpace=wrap;html=1;aspect=fixed;rotation=0;gradientColor=#470ced;strokeColor=none;gradientDirection=east;fillColor=#9b56c8;rounded=0;pointerEvents=0;fontFamily=Helvetica;fontSize=16;fontColor=#FFFFFF;spacingTop=4;spacingBottom=4;spacingLeft=4;spacingRight=4;points=[];fontStyle=1" vertex="1" parent="UEzPUAAOIrF-is8g5C7q-107">
          <mxGeometry x="525" y="364.38" width="30" height="30" as="geometry" />
        </mxCell>
        <mxCell id="WYUEGz_iVffdBYWURj4v-41" value="8" style="ellipse;whiteSpace=wrap;html=1;aspect=fixed;rotation=0;gradientColor=#470ced;strokeColor=none;gradientDirection=east;fillColor=#9b56c8;rounded=0;pointerEvents=0;fontFamily=Helvetica;fontSize=16;fontColor=#FFFFFF;spacingTop=4;spacingBottom=4;spacingLeft=4;spacingRight=4;points=[];fontStyle=1" vertex="1" parent="UEzPUAAOIrF-is8g5C7q-107">
          <mxGeometry x="519" y="171" width="30" height="30" as="geometry" />
        </mxCell>
        <mxCell id="WYUEGz_iVffdBYWURj4v-42" value="&lt;font color=&quot;#470ced&quot;&gt;&lt;b&gt;Amplify Studio&lt;br&gt;Or&lt;/b&gt;&lt;/font&gt;&lt;div&gt;&lt;font color=&quot;#470ced&quot;&gt;&lt;b&gt;Amplify CLI&lt;/b&gt;&lt;/font&gt;&lt;/div&gt;" style="text;html=1;align=center;verticalAlign=middle;resizable=0;points=[];autosize=1;strokeColor=none;fillColor=none;" vertex="1" parent="UEzPUAAOIrF-is8g5C7q-107">
          <mxGeometry x="234.91" y="291" width="110" height="60" as="geometry" />
        </mxCell>
        <mxCell id="WYUEGz_iVffdBYWURj4v-43" value="&lt;div style=&quot;text-align: center;&quot;&gt;&lt;span style=&quot;background-color: initial; text-wrap: nowrap;&quot;&gt;&lt;font color=&quot;#470ced&quot;&gt;&lt;b&gt;Amplify Authentication&lt;/b&gt;&lt;/font&gt;&lt;/span&gt;&lt;/div&gt;" style="text;whiteSpace=wrap;html=1;" vertex="1" parent="UEzPUAAOIrF-is8g5C7q-107">
          <mxGeometry x="498" y="129" width="120" height="30" as="geometry" />
        </mxCell>
        <mxCell id="WYUEGz_iVffdBYWURj4v-44" value="&lt;div style=&quot;text-align: center;&quot;&gt;&lt;span style=&quot;background-color: initial; text-wrap: nowrap;&quot;&gt;&lt;font color=&quot;#470ced&quot;&gt;&lt;b&gt;Image Storage&lt;/b&gt;&lt;/font&gt;&lt;/span&gt;&lt;/div&gt;" style="text;whiteSpace=wrap;html=1;" vertex="1" parent="UEzPUAAOIrF-is8g5C7q-107">
          <mxGeometry x="390" y="210" width="120" height="30" as="geometry" />
        </mxCell>
        <mxCell id="WYUEGz_iVffdBYWURj4v-45" value="&lt;div style=&quot;text-align: center;&quot;&gt;&lt;span style=&quot;background-color: initial; text-wrap: nowrap;&quot;&gt;&lt;font color=&quot;#470ced&quot;&gt;&lt;b&gt;DynamoDB Table&lt;/b&gt;&lt;/font&gt;&lt;/span&gt;&lt;/div&gt;" style="text;whiteSpace=wrap;html=1;" vertex="1" parent="UEzPUAAOIrF-is8g5C7q-107">
          <mxGeometry x="510" y="478" width="120" height="30" as="geometry" />
        </mxCell>
        <mxCell id="WYUEGz_iVffdBYWURj4v-46" value="&lt;div style=&quot;text-align: center;&quot;&gt;&lt;span style=&quot;background-color: initial; text-wrap: nowrap;&quot;&gt;&lt;font color=&quot;#470ced&quot;&gt;&lt;b&gt;GraphQL EndPoint&lt;/b&gt;&lt;/font&gt;&lt;/span&gt;&lt;/div&gt;" style="text;whiteSpace=wrap;html=1;" vertex="1" parent="UEzPUAAOIrF-is8g5C7q-107">
          <mxGeometry x="300.57" y="479" width="120" height="28" as="geometry" />
        </mxCell>
        <mxCell id="WYUEGz_iVffdBYWURj4v-47" value="&lt;div style=&quot;text-align: center;&quot;&gt;&lt;span style=&quot;background-color: initial; text-wrap: nowrap;&quot;&gt;&lt;font color=&quot;#470ced&quot;&gt;&lt;b&gt;Create a GraphQL&lt;/b&gt;&lt;/font&gt;&lt;/span&gt;&lt;/div&gt;&lt;div style=&quot;text-align: center;&quot;&gt;&lt;span style=&quot;background-color: initial; text-wrap: nowrap;&quot;&gt;&lt;font color=&quot;#470ced&quot;&gt;&lt;b&gt;&amp;nbsp;API &amp;amp; Schema&lt;/b&gt;&lt;/font&gt;&lt;/span&gt;&lt;/div&gt;" style="text;whiteSpace=wrap;html=1;" vertex="1" parent="UEzPUAAOIrF-is8g5C7q-107">
          <mxGeometry x="198" y="394.38" width="120" height="38" as="geometry" />
        </mxCell>
        <mxCell id="WYUEGz_iVffdBYWURj4v-51" value="&lt;div style=&quot;text-align: center;&quot;&gt;&lt;span style=&quot;background-color: initial; text-wrap: nowrap;&quot;&gt;&lt;font color=&quot;#470ced&quot;&gt;&lt;b&gt;CRUD Operation&lt;/b&gt;&lt;/font&gt;&lt;/span&gt;&lt;/div&gt;" style="text;whiteSpace=wrap;html=1;" vertex="1" parent="UEzPUAAOIrF-is8g5C7q-107">
          <mxGeometry x="405" y="402.38" width="120" height="30" as="geometry" />
        </mxCell>
        <mxCell id="WYUEGz_iVffdBYWURj4v-52" value="" style="endArrow=classic;html=1;rounded=0;entryX=0;entryY=0.5;entryDx=0;entryDy=0;entryPerimeter=0;" edge="1" parent="UEzPUAAOIrF-is8g5C7q-107" source="WYUEGz_iVffdBYWURj4v-24" target="WYUEGz_iVffdBYWURj4v-31">
          <mxGeometry width="50" height="50" relative="1" as="geometry">
            <mxPoint x="325" y="141" as="sourcePoint" />
            <mxPoint x="375" y="91" as="targetPoint" />
            <Array as="points">
              <mxPoint x="278" y="91" />
            </Array>
          </mxGeometry>
        </mxCell>
        <mxCell id="WYUEGz_iVffdBYWURj4v-53" value="&lt;div style=&quot;text-align: center;&quot;&gt;&lt;span style=&quot;background-color: initial; text-wrap: nowrap;&quot;&gt;&lt;font color=&quot;#470ced&quot;&gt;&lt;b&gt;nAuth&lt;/b&gt;&lt;/font&gt;&lt;/span&gt;&lt;/div&gt;" style="text;whiteSpace=wrap;html=1;" vertex="1" parent="UEzPUAAOIrF-is8g5C7q-107">
          <mxGeometry x="370" y="71" width="40" height="20" as="geometry" />
        </mxCell>
        <mxCell id="WYUEGz_iVffdBYWURj4v-55" style="edgeStyle=orthogonalEdgeStyle;rounded=0;orthogonalLoop=1;jettySize=auto;html=1;exitX=0.5;exitY=0;exitDx=0;exitDy=0;entryX=0;entryY=0.5;entryDx=0;entryDy=0;entryPerimeter=0;" edge="1" parent="UEzPUAAOIrF-is8g5C7q-107" source="WYUEGz_iVffdBYWURj4v-27" target="WYUEGz_iVffdBYWURj4v-29">
          <mxGeometry relative="1" as="geometry">
            <Array as="points">
              <mxPoint x="361" y="240" />
            </Array>
          </mxGeometry>
        </mxCell>
        <mxCell id="WYUEGz_iVffdBYWURj4v-57" value="&lt;div style=&quot;text-align: center;&quot;&gt;&lt;span style=&quot;background-color: initial; text-wrap: nowrap;&quot;&gt;&lt;font color=&quot;#470ced&quot;&gt;&lt;b&gt;Simple Storage&amp;nbsp;&lt;/b&gt;&lt;/font&gt;&lt;/span&gt;&lt;/div&gt;&lt;div style=&quot;text-align: center;&quot;&gt;&lt;span style=&quot;background-color: initial; text-wrap: nowrap;&quot;&gt;&lt;font color=&quot;#470ced&quot;&gt;&lt;b&gt;Services(S3)&lt;/b&gt;&lt;/font&gt;&lt;/span&gt;&lt;/div&gt;" style="text;whiteSpace=wrap;html=1;" vertex="1" parent="UEzPUAAOIrF-is8g5C7q-107">
          <mxGeometry x="519" y="279" width="120" height="34" as="geometry" />
        </mxCell>
        <mxCell id="WYUEGz_iVffdBYWURj4v-20" value="&lt;p style=&quot;line-height: 120%;&quot;&gt;&lt;span style=&quot;background-color: rgb(255, 255, 255);&quot;&gt;&lt;b&gt;&lt;font color=&quot;#6666ff&quot;&gt;React Application&lt;/font&gt;&lt;/b&gt;&lt;/span&gt;&lt;/p&gt;" style="text;html=1;align=center;verticalAlign=middle;resizable=0;points=[];autosize=1;strokeColor=none;fillColor=none;" vertex="1" parent="UEzPUAAOIrF-is8g5C7q-107">
          <mxGeometry y="291" width="120" height="50" as="geometry" />
        </mxCell>
        <mxCell id="WYUEGz_iVffdBYWURj4v-19" style="edgeStyle=orthogonalEdgeStyle;rounded=0;orthogonalLoop=1;jettySize=auto;html=1;" edge="1" parent="1" source="WYUEGz_iVffdBYWURj4v-11" target="WYUEGz_iVffdBYWURj4v-10">
          <mxGeometry relative="1" as="geometry" />
        </mxCell>
        <mxCell id="WYUEGz_iVffdBYWURj4v-11" value="&lt;font color=&quot;#076fed&quot;&gt;&lt;b&gt;User&lt;/b&gt;&lt;/font&gt;" style="sketch=0;outlineConnect=0;fontColor=#232F3E;gradientColor=none;fillColor=#232F3D;strokeColor=none;dashed=0;verticalLabelPosition=bottom;verticalAlign=top;align=center;html=1;fontSize=12;fontStyle=0;aspect=fixed;pointerEvents=1;shape=mxgraph.aws4.user;" vertex="1" parent="1">
          <mxGeometry x="180" y="520" width="78" height="78" as="geometry" />
        </mxCell>
        <mxCell id="WYUEGz_iVffdBYWURj4v-12" value="&lt;b&gt;&lt;font color=&quot;#105dbc&quot;&gt;Developer&lt;/font&gt;&lt;/b&gt;" style="sketch=0;outlineConnect=0;fontColor=#232F3E;gradientColor=none;fillColor=#232F3D;strokeColor=none;dashed=0;verticalLabelPosition=bottom;verticalAlign=top;align=center;html=1;fontSize=12;fontStyle=0;aspect=fixed;pointerEvents=1;shape=mxgraph.aws4.user;" vertex="1" parent="1">
          <mxGeometry x="180" y="360" width="78" height="78" as="geometry" />
        </mxCell>
        <mxCell id="WYUEGz_iVffdBYWURj4v-16" value="1" style="ellipse;whiteSpace=wrap;html=1;aspect=fixed;rotation=0;gradientColor=#470CED;strokeColor=none;gradientDirection=east;fillColor=#9b56c8;rounded=0;pointerEvents=0;fontFamily=Helvetica;fontSize=16;fontColor=#FFFFFF;spacingTop=4;spacingBottom=4;spacingLeft=4;spacingRight=4;points=[];fontStyle=1" vertex="1" parent="1">
          <mxGeometry x="204" y="310" width="30" height="30" as="geometry" />
        </mxCell>
        <mxCell id="WYUEGz_iVffdBYWURj4v-17" value="" style="endArrow=classic;html=1;rounded=0;entryX=0;entryY=0.25;entryDx=0;entryDy=0;" edge="1" parent="1" source="WYUEGz_iVffdBYWURj4v-12" target="WYUEGz_iVffdBYWURj4v-10">
          <mxGeometry width="50" height="50" relative="1" as="geometry">
            <mxPoint x="540" y="330" as="sourcePoint" />
            <mxPoint x="590" y="280" as="targetPoint" />
          </mxGeometry>
        </mxCell>
        <mxCell id="WYUEGz_iVffdBYWURj4v-18" value="&lt;b&gt;&lt;font color=&quot;#1028e0&quot;&gt;Upload&amp;nbsp;&lt;/font&gt;&lt;/b&gt;&lt;div&gt;&lt;b&gt;&lt;font color=&quot;#1028e0&quot;&gt;Source Code&lt;/font&gt;&lt;/b&gt;&lt;/div&gt;" style="edgeLabel;html=1;align=center;verticalAlign=middle;resizable=0;points=[];" vertex="1" connectable="0" parent="WYUEGz_iVffdBYWURj4v-17">
          <mxGeometry x="0.0689" y="6" relative="1" as="geometry">
            <mxPoint as="offset" />
          </mxGeometry>
        </mxCell>
      </root>
    </mxGraphModel>
  </diagram>
</mxfile>
